<svg width="16" height="20" fill="none" xmlns="http://www.w3.org/2000/svg"><path d="M8.094.833C3.86.833.5 4.343.5 8.545c0 2.335 1.422 4.838 2.985 6.875.781 1.018 1.608 1.907 2.368 2.566.38.33.744.602 1.097.808.354.206.686.372 1.144.372.473 0 .77-.179 1.102-.385a7.536 7.536 0 001.042-.806c.73-.657 1.537-1.544 2.305-2.56 1.536-2.034 2.957-4.535 2.957-6.87 0-4.202-3.335-7.712-7.406-7.712zm0 1.667c3.105 0 5.74 2.725 5.74 6.045 0 1.593-1.204 3.985-2.623 5.864-.71.94-1.463 1.763-2.09 2.327a6.17 6.17 0 01-.804.63c-.11.07-.203.101-.247.117-.038-.014-.13-.041-.282-.13a5.96 5.96 0 01-.843-.626c-.649-.563-1.417-1.385-2.137-2.323-1.44-1.876-2.641-4.266-2.641-5.86 0-3.32 2.61-6.044 5.927-6.044z" fill="#2C4776"/></svg>