<svg width="124" height="70" fill="none" xmlns="http://www.w3.org/2000/svg"><path fill-rule="evenodd" clip-rule="evenodd" d="M21.855 44.01h-7.048L7.31 20.842h6.485l4.499 15.969 4.535-15.97h6.486l-7.46 23.167zM32.35 64.701c13.945 0 25.79-8.81 30.364-21.142-1.05.3-2.174.45-3.373.45h-9.447V20.842h9.447c1.237 0 2.361.15 3.448.487C58.292 8.884 46.371 0 32.351 0 14.47 0 0 14.47 0 32.351c0 17.844 14.47 32.351 32.351 32.351zm32.314-30.776c-.225 1.087-.675 2.024-1.387 2.773-1.05 1.05-2.362 1.575-3.936 1.575h-3.337V26.54h3.337c1.611 0 2.924.524 3.936 1.611.712.75 1.2 1.65 1.387 2.774.037.45.037.938.037 1.387 0 .563 0 1.088-.037 1.612zM37.599 35.05v3.411h8.96v5.548H31.676V20.843H46.41v5.548H37.6v3.224h7.985v5.473H37.6v-.038z" fill="#2C4776"/><path fill-rule="evenodd" clip-rule="evenodd" d="M59.38 20.843h23.916v5.548h-8.81v3.224h7.985v5.473h-7.985v3.41h8.96v5.511H60.202v-.037c2.812-.188 5.174-1.275 7.123-3.299 2.175-2.212 3.262-4.986 3.262-8.285 0-3.26-1.087-5.997-3.262-8.247-2.136-2.174-4.76-3.298-7.947-3.298zm-2.025 17.43h1.987c1.574 0 2.886-.524 3.936-1.574 1.012-1.087 1.537-2.511 1.537-4.273 0-1.8-.525-3.186-1.537-4.236-1.012-1.087-2.325-1.612-3.936-1.612H56.83c-.3.337-.6.712-.825 1.087V36.7a8.843 8.843 0 001.35 1.575zm39.286-2.698l5.998 8.434h-6.223l-2.886-4.086-2.887 4.086h-6.185l5.998-8.434-5.773-8.097h6.185l2.662 3.748 2.661-3.748h6.223l-5.773 8.097z" fill="#2C4776"/><path fill-rule="evenodd" clip-rule="evenodd" d="M76.312 52.029c1.726 0 3.156.631 4.37 1.923 1.213 1.263 1.806 2.842 1.806 4.68 0 1.866-.593 3.445-1.807 4.708-1.186 1.263-2.643 1.894-4.37 1.894-1.132 0-2.13-.287-3.047-.86a5.6 5.6 0 01-2.077-2.384V70H70V52.258h1.187v2.929c.485-1.005 1.187-1.809 2.077-2.383a6.284 6.284 0 013.048-.775zm-3.669 10.45c.998 1.062 2.185 1.578 3.588 1.578 1.402 0 2.59-.516 3.587-1.579.998-1.062 1.484-2.325 1.484-3.818 0-1.492-.486-2.784-1.484-3.818-.998-1.062-2.185-1.579-3.587-1.579-1.403 0-2.617.517-3.588 1.58-.97 1.033-1.456 2.296-1.456 3.817 0 1.493.485 2.785 1.456 3.819zm13.891-10.192v2.498c.729-1.78 2.05-2.67 3.992-2.67v1.206c-1.186 0-2.13.401-2.859 1.205-.728.804-1.106 1.924-1.106 3.388v7.062h-1.186V52.287h1.16zm11.032-.258c1.754 0 3.156.66 4.235 1.98 1.106 1.321 1.646 2.871 1.646 4.68v.632h-10.79c.135 1.406.675 2.583 1.592 3.445.917.86 2.077 1.291 3.452 1.291.944 0 1.754-.2 2.482-.631a4.193 4.193 0 001.645-1.694l1.052.66c-.485.89-1.187 1.58-2.104 2.096-.917.517-1.942.775-3.075.775-1.834 0-3.344-.603-4.504-1.837-1.187-1.263-1.753-2.842-1.753-4.766 0-1.894.566-3.473 1.726-4.708 1.133-1.292 2.616-1.923 4.396-1.923zm0 1.205c-1.321 0-2.454.46-3.371 1.35-.917.89-1.43 2.067-1.538 3.473h9.576c-.135-1.492-.648-2.67-1.538-3.53-.89-.862-1.915-1.293-3.129-1.293zm9.009 2.383c0 1.062.864 1.838 2.563 2.297.485.115.863.2 1.079.258.243.058.566.172 1.025.316.458.144.782.287 1.025.46.242.172.485.373.755.631s.485.545.593.89c.108.344.189.746.189 1.177 0 1.062-.404 1.923-1.187 2.612-.782.66-1.807 1.005-3.075 1.005-1.132 0-2.076-.258-2.886-.775-.782-.517-1.348-1.206-1.645-2.067l1.025-.632a2.855 2.855 0 001.241 1.637c.62.402 1.348.574 2.238.574.918 0 1.673-.2 2.239-.632.567-.43.836-1.004.836-1.75 0-1.15-.863-1.924-2.562-2.297-1.591-.402-2.643-.776-3.183-1.12-.998-.603-1.483-1.493-1.483-2.612 0-1.005.377-1.867 1.132-2.556.783-.689 1.754-1.033 2.941-1.033.944 0 1.753.23 2.481.689.701.46 1.241 1.062 1.565 1.837l-.998.603c-.243-.603-.621-1.09-1.187-1.407-.54-.344-1.16-.516-1.861-.516-.837 0-1.511.23-2.05.66-.54.46-.81 1.034-.81 1.751zm10.196 0c0 1.062.863 1.838 2.563 2.297.485.115.863.2 1.079.258.242.058.566.172 1.025.316.458.144.782.287 1.025.46.242.172.485.373.755.631.269.258.485.545.593.89.108.344.189.746.189 1.177 0 1.062-.405 1.923-1.187 2.612-.782.66-1.807 1.005-3.075 1.005-1.133 0-2.077-.258-2.886-.775-.782-.517-1.349-1.206-1.645-2.067l1.025-.632a2.855 2.855 0 001.241 1.637c.62.402 1.348.574 2.238.574.917 0 1.673-.2 2.239-.632.566-.43.836-1.004.836-1.75 0-1.15-.863-1.924-2.562-2.297-1.592-.402-2.644-.776-3.183-1.12-.998-.603-1.484-1.493-1.484-2.612 0-1.005.378-1.867 1.133-2.556.783-.689 1.754-1.033 2.94-1.033.944 0 1.754.23 2.482.689.701.46 1.241 1.062 1.564 1.837l-.998.603c-.242-.603-.62-1.09-1.187-1.407-.539-.344-1.159-.516-1.861-.516-.836 0-1.51.23-2.05.66a2.187 2.187 0 00-.809 1.751z" fill="#000"/><path fill-rule="evenodd" clip-rule="evenodd" d="M21.855 44.01h-7.048L7.31 20.842h6.485l4.499 15.969 4.536-15.97h6.485l-7.46 23.167zm15.744-8.96v3.411h8.96v5.548H31.676V20.843H46.41v5.548H37.6v3.224h7.985v5.473H37.6v-.038zm12.296-14.207h9.447c3.186 0 5.848 1.124 8.022 3.336 2.174 2.212 3.261 4.986 3.261 8.247 0 3.299-1.087 6.035-3.261 8.285-2.137 2.211-4.799 3.298-8.022 3.298h-9.447V20.843zm6.11 17.43h3.337c1.574 0 2.886-.524 3.936-1.574 1.012-1.087 1.537-2.511 1.537-4.273 0-1.8-.525-3.186-1.537-4.236-1.012-1.087-2.324-1.612-3.936-1.612h-3.337v11.696z" fill="#fff"/></svg>