<svg width="746" height="421" fill="none" xmlns="http://www.w3.org/2000/svg"><g opacity=".05" fill-rule="evenodd" clip-rule="evenodd"><path d="M131.34 264.482H88.987L43.93 125.257h38.974l27.034 95.971 27.259-95.971h38.974L131.34 264.482zm63.079 124.356c83.806 0 154.995-52.941 182.48-127.059-6.308 1.802-13.067 2.703-20.276 2.703h-56.771V125.257h56.771c7.435 0 14.193.901 20.726 2.929C350.315 53.392 278.675 0 194.419 0 86.959 0 0 86.96 0 194.419c0 107.235 86.96 194.419 194.419 194.419zm194.194-184.957c-1.351 6.533-4.055 12.165-8.335 16.671-6.308 6.308-14.193 9.462-23.655 9.462h-20.05V159.5h20.05c9.687 0 17.572 3.154 23.655 9.688 4.28 4.505 7.209 9.912 8.335 16.67.226 2.704.226 5.633.226 8.336 0 3.379 0 6.533-.226 9.687zm-162.654 6.759v20.5h53.843v33.342h-89.438V125.257h88.537v33.342h-52.942v19.375h47.985v32.891h-47.985v-.225z" fill="#415373"/><path d="M356.85 125.257h143.73v33.342h-52.941v19.375h47.985v32.891h-47.985v20.501h53.843v33.116H361.806v-.225c16.896-1.126 31.089-7.66 42.804-19.825 13.066-13.292 19.6-29.963 19.6-49.787 0-19.6-6.534-36.046-19.6-49.563-12.841-13.066-28.611-19.825-47.76-19.825zm-12.165 104.757h11.94c9.461 0 17.346-3.154 23.654-9.462 6.083-6.533 9.237-15.094 9.237-25.682 0-10.814-3.154-19.149-9.237-25.457-6.082-6.533-13.967-9.687-23.654-9.687h-15.094c-1.803 2.027-3.605 4.28-4.957 6.533v54.293c2.253 3.379 4.957 6.533 8.111 9.462zm236.096-16.22l36.046 50.688H579.43l-17.347-24.556-17.347 24.556h-37.172l36.046-50.688-34.694-48.662h37.172l15.995 22.529 15.995-22.529h37.397l-34.694 48.662z" fill="#415373"/><path d="M458.609 312.675c10.374 0 18.965 3.796 26.26 11.559 7.294 7.592 10.86 17.081 10.86 28.122 0 11.215-3.566 20.704-10.86 28.295-7.133 7.591-15.886 11.387-26.26 11.387-6.808 0-12.806-1.726-18.317-5.176-5.35-3.451-9.564-8.109-12.482-14.32v48.135h-7.133V314.055h7.133v17.598c2.918-6.038 7.132-10.869 12.482-14.32 5.349-2.933 11.509-4.658 18.317-4.658zm-22.046 62.8c5.998 6.383 13.13 9.489 21.559 9.489 8.43 0 15.562-3.106 21.56-9.489 5.997-6.384 8.915-13.975 8.915-22.946 0-8.972-2.918-16.735-8.915-22.946-5.998-6.384-13.13-9.489-21.56-9.489-8.429 0-15.723 3.105-21.559 9.489-5.835 6.211-8.753 13.802-8.753 22.946 0 8.971 2.918 16.735 8.753 22.946zm83.481-61.247v15.01c4.377-10.697 12.32-16.045 23.991-16.045v7.246c-7.132 0-12.806 2.415-17.183 7.246-4.376 4.831-6.646 11.559-6.646 20.358v42.442h-7.132v-76.257h6.97zm66.299-1.553c10.536 0 18.965 3.968 25.449 11.904 6.647 7.937 9.888 17.253 9.888 28.122v3.796h-64.839c.81 8.454 4.052 15.527 9.564 20.703 5.511 5.176 12.481 7.764 20.748 7.764 5.674 0 10.537-1.208 14.913-3.796 4.215-2.415 7.619-5.866 9.889-10.179l6.321 3.968c-2.917 5.349-7.132 9.489-12.643 12.595-5.512 3.105-11.671 4.658-18.48 4.658-11.022 0-20.1-3.623-27.07-11.042-7.133-7.591-10.537-17.08-10.537-28.639 0-11.387 3.404-20.876 10.375-28.295 6.808-7.763 15.723-11.559 26.422-11.559zm0 7.246c-7.943 0-14.751 2.761-20.263 8.109-5.511 5.348-8.591 12.422-9.239 20.876h57.545c-.81-8.972-3.89-16.045-9.24-21.221-5.349-5.176-11.509-7.764-18.803-7.764zm54.141 14.32c0 6.383 5.187 11.042 15.399 13.802 2.918.69 5.188 1.208 6.484 1.553 1.459.345 3.404 1.035 6.16 1.898 2.756.862 4.701 1.725 6.16 2.76 1.459 1.035 2.918 2.243 4.539 3.796 1.621 1.552 2.917 3.278 3.566 5.348.648 2.07 1.135 4.486 1.135 7.074 0 6.383-2.432 11.559-7.133 15.7-4.701 3.968-10.86 6.038-18.479 6.038-6.808 0-12.482-1.553-17.345-4.658-4.701-3.106-8.105-7.246-9.888-12.422l6.16-3.796c1.297 4.313 3.89 7.592 7.457 9.834 3.728 2.416 8.104 3.451 13.454 3.451 5.511 0 10.05-1.208 13.454-3.796s5.025-6.038 5.025-10.524c0-6.901-5.187-11.559-15.399-13.802-9.564-2.415-15.886-4.658-19.128-6.729-5.998-3.623-8.915-8.971-8.915-15.7 0-6.038 2.269-11.214 6.808-15.355 4.701-4.14 10.536-6.211 17.669-6.211 5.673 0 10.536 1.381 14.913 4.141 4.214 2.761 7.456 6.384 9.401 11.042l-5.997 3.623c-1.459-3.623-3.729-6.556-7.133-8.454-3.242-2.07-6.97-3.105-11.184-3.105-5.026 0-9.078 1.38-12.32 3.968-3.242 2.76-4.863 6.211-4.863 10.524zm61.273 0c0 6.383 5.188 11.042 15.4 13.802 2.918.69 5.187 1.208 6.484 1.553 1.459.345 3.404 1.035 6.16 1.898 2.755.862 4.7 1.725 6.159 2.76 1.459 1.035 2.918 2.243 4.539 3.796 1.621 1.552 2.918 3.278 3.566 5.348.649 2.07 1.135 4.486 1.135 7.074 0 6.383-2.431 11.559-7.132 15.7-4.701 3.968-10.861 6.038-18.48 6.038-6.808 0-12.481-1.553-17.344-4.658-4.701-3.106-8.105-7.246-9.888-12.422l6.16-3.796c1.296 4.313 3.89 7.592 7.456 9.834 3.728 2.416 8.105 3.451 13.454 3.451 5.512 0 10.05-1.208 13.455-3.796 3.404-2.588 5.025-6.038 5.025-10.524 0-6.901-5.188-11.559-15.4-13.802-9.564-2.415-15.886-4.658-19.128-6.729-5.997-3.623-8.915-8.971-8.915-15.7 0-6.038 2.269-11.214 6.808-15.355 4.701-4.14 10.537-6.211 17.669-6.211 5.673 0 10.536 1.381 14.913 4.141 4.215 2.761 7.457 6.384 9.402 11.042l-5.998 3.623c-1.459-3.623-3.728-6.556-7.132-8.454-3.242-2.07-6.97-3.105-11.185-3.105-5.025 0-9.078 1.38-12.32 3.968-3.242 2.76-4.863 6.211-4.863 10.524z" fill="#000"/><path d="M131.341 264.482H88.987L43.931 125.257h38.974l27.034 95.971 27.259-95.971h38.974l-44.831 139.225zm94.619-53.842v20.5h53.842v33.342h-89.437V125.257h88.536v33.342H225.96v19.375h47.985v32.891H225.96v-.225zm73.893-85.383h56.771c19.149 0 35.144 6.759 48.211 20.051 13.066 13.291 19.599 29.962 19.599 49.562 0 19.825-6.533 36.27-19.599 49.787-12.842 13.292-28.837 19.825-48.211 19.825h-56.771V125.257zm36.721 104.757h20.05c9.462 0 17.347-3.154 23.655-9.462 6.082-6.533 9.236-15.094 9.236-25.682 0-10.814-3.154-19.149-9.236-25.457-6.083-6.533-13.968-9.687-23.655-9.687h-20.05v70.288z" fill="#fff"/></g></svg>