<svg width="18" height="21" fill="none" xmlns="http://www.w3.org/2000/svg"><path d="M9.204.202a2.015 2.015 0 00-1.268.755c-.128.169-.278.48-.334.693-.041.155-.047.218-.049.459a1.67 1.67 0 00.12.718c.11.291.302.565.547.775l.113.097v1.32h.143v.827h-.071c-.065 0-.072.004-.072.045v.045H5.217l-.08-.102a.866.866 0 00-1.42.097c-.316.52.002 1.196.615 1.299.292.05.644-.088.808-.317l.055-.079h1.57c1.539 0 1.568 0 1.568.035 0 .028.014.035.068.04l.066.006.006 3.621c.003 2.516 0 3.703-.015 3.89-.035.496-.113.855-.475 2.228a8.6 8.6 0 00-.139.62c-.021.133-.04.245-.041.246a1.3 1.3 0 01-.13-.048 2.888 2.888 0 00-.314-.097c-.581-.144-1.452-.514-2.045-.872a5.887 5.887 0 01-1.264-.993 4.768 4.768 0 01-.629-.76 4.586 4.586 0 01-.718-1.745c-.007-.034.003-.038.25-.058.141-.01.285-.03.32-.044.121-.05.171-.205.137-.425-.041-.282-.265-.815-.546-1.306-.23-.4-.612-.942-.664-.942-.036 0-.192.184-.33.387a6.201 6.201 0 00-.823 1.76c-.09.313-.07.423.088.506.072.037.29.079.415.079.06 0 .122.007.135.016.014.009.04.102.059.22.289 1.724 1.31 3.48 2.737 4.703 1.032.886 2.227 1.546 3.715 2.05.482.162.61.218.783.333.14.094.244.203.325.343.07.126.133.175.203.162.072-.014.086-.03.169-.169.124-.208.338-.38.621-.501.06-.026.28-.103.487-.171 2.09-.695 3.708-1.757 4.852-3.19.862-1.08 1.444-2.416 1.613-3.706l.01-.083.261-.02c.385-.03.453-.077.47-.309.012-.163-.024-.313-.152-.64a6.77 6.77 0 00-.679-1.275c-.177-.266-.32-.451-.373-.484-.029-.016-.045-.007-.104.061-.395.446-.857 1.344-1.056 2.056-.086.307-.069.451.068.523.073.038.289.08.404.08a1.2 1.2 0 01.154.011l.058.013-.01.094a4.61 4.61 0 01-.2.754c-.16.431-.464.962-.764 1.33a6.906 6.906 0 01-.718.731 6.6 6.6 0 01-1.392.895c-.42.207-.75.34-1.18.478-.382.12-.82.266-.861.284-.03.013-.033.004-.033-.061 0-.192-.063-.525-.253-1.323-.197-.835-.268-1.218-.303-1.653-.011-.13-.018-1.647-.018-3.912V6.906h.044c.033 0 .045-.009.045-.036 0-.036.013-.036 1.52-.036h1.519l.113.123a.86.86 0 001.47-.354c.14-.47-.188-.99-.68-1.082a.891.891 0 00-.835.316l-.075.099h-3.032v-.045c0-.036-.009-.045-.045-.045h-.044V5.02h.089V3.68l.119-.105c1.038-.93.781-2.616-.489-3.211a1.71 1.71 0 00-.752-.169c-.138-.004-.291 0-.341.007zm.603.748c.327.084.63.334.776.64.106.222.13.325.127.564a1.156 1.156 0 01-.357.844c-.14.14-.271.225-.454.293a1.547 1.547 0 01-.704.03 1.218 1.218 0 01-.8-.646 1.104 1.104 0 01-.123-.548c0-.338.115-.611.357-.856a.926.926 0 01.316-.228 1.43 1.43 0 01.268-.1l.134-.027c.069-.017.343.005.46.034z" fill="#fff"/></svg>