<svg width="77" height="81" fill="none" xmlns="http://www.w3.org/2000/svg"><path d="M62.495 62.862c3.91 3.349 10.94 8.372 13.966 10.464C79.487 75.42 68.781 81 68.781 81c-4.19-4.883-12.57-8.51-12.57-11.86 0-4.185-14.664-16.044-34.217-11.161-14.545 3.633-13.666-1.22-20.25-6.976-5.587-4.883 3.49-11.44 9.775-13.952 8.38-3.349 4.888-2.79 6.286-15.348C19.201 9.146 7.056 6.31 9.425 2.17c2.793-4.883 14.664 0 14.664 0s22.345 9.07 32.122 18.138c9.776 9.069 1.396 11.162 0 20.23-1.397 9.07 1.396 18.139 6.284 22.324z" fill="#F3F6F8"/></svg>