<svg width="538" height="1258" fill="none" xmlns="http://www.w3.org/2000/svg"><path d="M396.286 1059.28c-5.399-6.48-9.718-14.58-8.098-17.82 1.619-3.24 0-5.4-1.62-5.4-3.779 0-15.657-21.6-15.657-29.16 0-2.7-5.399-8.638-12.957-12.958a51.836 51.836 0 01-18.357-21.06 168.504 168.504 0 00-18.356-29.7 183.556 183.556 0 01-18.356-30.239c-3.6-8.64-8.099-12.96-13.498-12.96-8.098 0-23.755-12.42-23.755-18.9a15.66 15.66 0 00-5.399-8.1 16.204 16.204 0 01-5.939-10.8 25.39 25.39 0 00-6.478-13.5c-5.399-5.4-5.399-8.1-2.16-10.8 7.019-3.78 1.62-23.759-7.018-25.919-4.32-1.08-6.479-4.32-5.399-7.56 3.239-8.1 9.178-6.48 13.497 4.86a21.602 21.602 0 0011.338 11.88c4.319 1.08 7.558 4.859 7.558 7.559a9.717 9.717 0 007.019 8.1c11.877 4.32 16.736 9.72 12.957 14.58-4.319 5.4 5.399 17.82 19.976 24.3 5.939 2.7 10.798 6.48 10.798 9.18a4.32 4.32 0 004.319 3.78c2.7 0 15.117 9.18 28.614 21.06a201.417 201.417 0 0037.793 27l13.497 5.4-18.896.54c-22.676.54-24.835 4.859-16.197 30.239 8.638 25.38 20.516 44.278 28.614 44.278 5.065.57 9.899 2.43 14.038 5.4a18.43 18.43 0 006.567 3.63c2.416.74 4.959.98 7.47.69 8.638-2.7 18.356 17.28 10.798 21.6a8.609 8.609 0 01-4.247 1.43 8.562 8.562 0 01-4.392-.89c-1.619-1.08-1.079-3.78 2.16-5.4 3.779-2.16 3.779-3.24 0-3.24-8.098 0-19.436 14.04-16.197 19.98 9.718 15.12 0 14.58-13.497-1.08h-.54zm-17.277-12.96c0-4.32.54-6.48 2.16-5.4a7.56 7.56 0 010 7.56c-1.08 3.24-2.16 2.7-2.16-2.16zm108.519-16.74c0-10.8 2.159-16.2 6.478-18.36 5.399-2.16 5.399 0 3.78 12.42-4.319 21.6-10.258 25.38-10.258 5.94zm14.577-27c-5.399-5.398-3.24-39.418 3.239-41.578a9.716 9.716 0 005.399-8.64c0-3.24 2.16-5.4 4.319-5.4 5.399 0 4.859 4.32-2.159 20.52a36.73 36.73 0 00-3.24 19.44c2.16 7.02-3.779 19.978-7.558 16.198v-.54zm21.056-77.757c0-7.02 1.079-14.04 3.239-15.12 4.859-2.7 4.859 8.64 0 19.44-2.7 7.02-3.239 5.94-3.239-4.32zm11.877-59.4c0-5.4 1.08-8.1 2.16-5.4a15.13 15.13 0 010 9.72c-1.62 3.24-2.16 1.08-2.16-4.32zm-387.642-19.98c-1.62-2.16-.54-3.78 1.619-3.78.963.115 1.859.55 2.545 1.235a4.328 4.328 0 011.235 2.545c0 2.16-.54 4.32-1.62 4.32s-2.7-1.62-3.779-3.78v-.54zm373.065-50.759c-3.239-5.4-.54-7.56 5.399-3.78 3.779 2.16 3.779 4.32 1.08 5.4a5.398 5.398 0 01-6.479-1.08v-.54zm-5.399-27a3.777 3.777 0 012.668-3.084 3.778 3.778 0 014.522 5.168 3.78 3.78 0 01-3.411 2.236 3.778 3.778 0 01-3.779-3.78v-.54zm-4.319-21.6a27.54 27.54 0 010-6.48 22.152 22.152 0 00-3.239-10.8 8.635 8.635 0 01-1.628-5.495 8.635 8.635 0 012.168-5.305c5.398-5.4 12.417-5.94 8.638-.54a8.107 8.107 0 001.62 8.64c2.699 3.24 2.159 7.56-1.62 14.58-3.239 5.4-5.399 8.1-5.939 5.94v-.54zM258.074 591.105c0-.54 1.619-2.7 3.779-3.78 2.159-1.08 3.779-.54 3.779 1.62a3.78 3.78 0 01-3.779 3.78c-2.16 0-3.779 0-3.779-1.62zM130.119 194.749c0-1.08 2.7-2.7 5.939-3.78 3.239-1.08 5.399 0 5.399 1.62s-2.16 3.78-5.399 3.78-5.399-.54-5.399-1.62h-.54zm20.516-124.74c-7.019-14.04-5.939-20.52 2.699-25.38 8.639-4.86 9.179-3.78 8.099 16.2-1.08 17.28-5.399 21.6-10.798 9.18z" fill="#F3F6F8"/><path d="M208.943 1252.6c7.019-5.4 7.019-5.94.54-25.38a117.65 117.65 0 00-13.497-28.08c-5.399-7.56-5.939-10.26-1.62-18.9 2.7-5.4 7.019-10.26 9.179-10.8l10.797-.54c9.179-.54 13.498-14.58 8.099-24.84a10.8 10.8 0 011.079-12.96c4.831-5.37 4.326-6.47-7.881-33.01l-.217-.47c-3.779-8.1-4.319-11.88-.54-16.2 3.78-4.32 3.24-6.48-1.619-10.8a21.038 21.038 0 01-5.399-14.04c0-4.86-1.62-9.18-3.24-9.18-3.239 0-14.577 16.2-13.497 19.98 0 1.62-3.779 4.86-9.178 7.56a26.459 26.459 0 00-11.878 14.04c-1.08 5.4-3.779 9.18-5.399 9.18a18.912 18.912 0 00-8.638 5.4c-8.638 8.1-20.516 3.24-28.614-10.8-4.859-9.18-9.718-12.96-16.737-13.5l-24.835-2.16c-8.098-1.08-15.657 0-16.197 1.62-3.24 4.86-17.276 1.08-28.614-7.02a87.939 87.939 0 00-25.915-15.12c-7.558-2.16-7.558-2.7 1.08-5.4l9.178-2.16-10.258-10.8a42.615 42.615 0 01-9.718-14.58 3.766 3.766 0 00-1.29-2.88c-.41-.36-.894-.63-1.417-.78-.522-.16-2.152-728.494-2.152-728.494 2.05-6.47 21.217-12.461 25.915-17.358 8.098-9.72 12.417-11.88 26.994-11.88 10.798 0 17.277 2.16 18.897 5.94 4.859 12.42 35.093 3.24 33.473-10.8a27.006 27.006 0 0114.577-27 29.693 29.693 0 0014.037-15.12c3.24-8.1 6.479-10.799 10.798-10.259a9.184 9.184 0 009.718-1.62 9.179 9.179 0 019.718-2.16 12.423 12.423 0 0011.338-3.78c6.479-7.56-2.16-16.74-16.197-16.74-15.117 0-16.737-9.18-3.779-23.22 5.939-6.48 10.258-11.88 9.178-11.88-1.08 0 1.62-5.4 5.399-12.42 10.798-18.9 25.915-30.78 61.548-48.6a109.628 109.628 0 0018.356-11.88c3.779-3.24 8.099-4.86 10.258-3.24 2.16 1.62 4.859-.54 5.939-3.78a6.467 6.467 0 013.353-4.091 6.48 6.48 0 015.285-.228c4.859 2.16 5.399 1.08 3.78-3.78-2.16-5.4-.001-5.94 21.055-4.32 18.357 1.62 23.216 1.08 23.216-3.24 0-3.24-3.78-5.4-9.719-5.4-10.797 0-11.877-2.16-3.239-10.8a12.417 12.417 0 003.779-10.8c-1.079-3.24 1.62-6.48 6.479-8.1a85.287 85.287 0 0019.436-9.72c11.338-8.1 10.798-8.1 12.418 9.72a11.876 11.876 0 004.319 7.56c2.159 1.62 1.619 4.32-2.16 6.48s-4.319 4.86-3.239 5.4c1.62 2.7 16.197 5.4 25.915 6.48 2.699 0 3.779 2.16 2.159 4.86-1.619 2.7-.54 3.78 3.779 1.62 4.32-2.16 6.479 0 6.479 3.24s-1.619 5.94-3.779 5.94-3.779 1.08-3.239 2.7-4.319 8.64-10.798 15.12c-9.178 9.72-12.958 11.34-18.357 8.1-5.399-3.24-7.558-2.7-12.417 3.24a32.4 32.4 0 00-5.399 16.199c0 7.02-2.699 9.18-10.258 9.18a16.2 16.2 0 01-11.878-4.32c-3.239-5.4-8.098-4.32-10.797 2.7-2.7 7.02 8.638 17.28 17.816 14.58 4.859-1.62 8.638 2.7 14.577 14.04 8.638 17.28 6.479 27-7.558 35.1-5.399 2.16-7.019 5.94-5.399 10.26 2.159 5.4 3.239 5.4 7.018 0a18.355 18.355 0 0113.498-6.48c4.319 0 8.098-2.16 8.098-4.32 0-4.86 16.197-.54 19.976 5.4 1.62 2.16 3.779 2.16 5.399-.54 3.239-5.4 30.234-4.86 34.013 1.08 3.779 5.94-11.338 21.6-18.896 21.6-6.479 0-7.019 6.48-.54 8.639 2.7 1.08 5.399 11.88 5.399 29.7a198.741 198.741 0 005.399 41.04 198.385 198.385 0 015.399 20.52l5.399 21.6c3.779 13.499 3.779 14.579-5.399 14.579-11.338 0-20.516 16.2-21.596 38.34-.54 13.5-1.62 15.12-6.479 10.8-4.859-4.32-5.399-2.7-3.779 11.88 1.62 11.88 1.08 16.2-2.699 16.2-8.099 0-10.258 16.74-2.7 27l16.197 26.999c9.718 17.82 23.216 26.46 23.216 14.58a5.925 5.925 0 011.925-4.403 5.932 5.932 0 014.553-1.537c4.319 0 5.399 2.16 4.319 7.02-1.079 4.86 0 8.64 8.099 10.8a43.184 43.184 0 0013.497 1.62c3.672-.201 7.346.35 10.798 1.62 8.638 2.7 10.258 13.5 1.619 13.5a6.477 6.477 0 00-5.345 4.988 6.476 6.476 0 00-.054 2.572c0 10.26 14.577 27.54 23.216 27.54a9.717 9.717 0 0110.52 10.995 9.723 9.723 0 01-2.422 5.205 33.484 33.484 0 00-4.319 18.899 22.677 22.677 0 009.178 21.6c8.639 6.48 9.178 7.56 4.319 21.6-4.319 11.88-4.319 15.12-.539 15.12 6.478 0 21.595 35.64 21.595 50.76 0 15.119-9.718 15.119-23.755 0a125.23 125.23 0 00-26.995-19.44c-32.393-17.28-92.861-72.36-92.861-85.86 0-10.259-8.099-26.999-12.958-26.999-2.159 0-2.159-2.16.54-4.86 7.019-7.02 5.939-47.52-1.079-54a17.821 17.821 0 01-5.399-11.34 12.432 12.432 0 00-4.319-9.72c-3.24-1.62-3.24-4.32 0-7.56 3.239-3.24 2.159-10.259-2.7-23.219-5.399-15.12-5.939-19.44-1.62-25.92 5.399-9.18 3.24-13.5-16.196-31.32a30.234 30.234 0 01-11.338-20.52c0-11.88-5.399-12.96-13.497-3.24-8.099 9.72-6.479 15.66 2.699 25.38a34.023 34.023 0 017.559 20.52c.004 8.327.726 16.637 2.159 24.84 1.62 9.72 1.08 11.88-4.319 10.8a23.762 23.762 0 01-11.878-9.18c-7.018-9.72-13.497-10.8-13.497-2.7a5.942 5.942 0 01-5.939 5.4 9.717 9.717 0 00-8.098 8.1c-1.08 4.32-3.779 7.559-5.399 7.559-5.399 0-8.638 23.76-3.779 29.16 2.159 3.24 5.399 16.2 6.478 28.08a121.501 121.501 0 008.099 34.02c5.399 10.8 5.399 10.8 12.957 3.78 4.319-3.78 7.559-4.86 7.559-2.16a28.626 28.626 0 01-9.718 12.96 26.992 26.992 0 00-9.718 14.04c0 3.239-2.7 4.319-7.559 3.24-4.859-1.08-8.638-1.081-9.718 1.079s-5.939 2.7-10.258 1.62c-5.399-1.62-7.558 0-7.558 4.32 0 3.24-1.62 5.94-3.24 5.4-11.338-1.62-16.736 2.16-18.896 12.42-2.16 11.88-7.559 17.82-22.136 25.38a13.502 13.502 0 00-7.558 10.8c0 4.86-1.08 5.4-4.319 3.24-3.24-2.16-9.178 0-18.896 9.18-21.596 19.98-27.535 30.78-24.836 45.899 1.62 7.02 1.08 14.04 0 16.2-1.079 2.16-3.779 10.8-3.779 21.6s-2.699 21.6-5.399 24.84c-2.699 3.24-3.779 16.2-3.239 30.24s-1.62 29.159-4.319 33.479a44.822 44.822 0 00-4.319 17.82 16.19 16.19 0 01-.702 6.318 16.188 16.188 0 01-3.077 5.562 12.964 12.964 0 00-3.78 10.26c0 5.4 2.7 7.56 11.338 7.56a19.97 19.97 0 0014.037-3.78c1.08-2.16 6.479.54 11.338 6.48 7.558 8.64 9.718 9.72 9.718 3.78 0-8.1 8.098-9.18 8.098-.54a5.67 5.67 0 0011.338 0 5.407 5.407 0 011.551-4.389 5.403 5.403 0 014.388-1.551c6.479 0 8.098-10.26 1.62-14.04-7.559-4.32 5.398-14.04 16.196-11.88 23.216 4.86 35.093 8.64 35.093 10.8a65.876 65.876 0 0013.498 17.28c9.178 8.64 13.497 16.2 11.877 19.98-3.239 7.56 5.399 34.02 12.958 43.2a162.566 162.566 0 0117.276 27.539c10.798 20.52 10.798 21.06 8.639 91.258-1.62 74.52-2.7 87.48-7.559 95.04a21.605 21.605 0 00-1.08 14.04c3.24 11.88-10.798 43.2-24.295 55.62-8.638 7.56-12.957 8.64-26.994 6.48l-16.197-2.16-2.7 16.2c-1.619 12.42-3.779 15.66-10.258 15.66-7.558 0-7.558 0-1.079-5.4h.539z" fill="#F3F6F8"/></svg>