<svg width="639" height="816" fill="none" xmlns="http://www.w3.org/2000/svg"><path d="M106.359 122.314a50.229 50.229 0 01-6.479-11.88 12.42 12.42 0 00-11.878-7.02 16.21 16.21 0 01-6.603-.591 16.21 16.21 0 01-5.814-3.189c-1.62-2.7 1.08-3.24 7.558-1.62 8.099 2.16 10.258 1.08 10.258-5.4a9.72 9.72 0 019.718-9.72 9.716 9.716 0 019.718 9.72c0 1.62 2.7 3.24 5.399 3.24 5.399 0 6.479 3.24 5.399 14.58-1.08 15.12-10.258 21.6-17.276 11.88zm531.337 564.295c-20.06 2.612-39.842 1.703-49.754 0a23.214 23.214 0 01-12.417-6.48c-3.779-3.24-8.638-5.4-10.798-3.78-5.399 3.78-8.098 23.22-3.239 29.16 3.779 5.4 3.779 5.4-2.16 1.08-10.258-8.1-24.295-4.32-23.215 5.94 1.08 10.26-9.718 12.42-18.357 3.78-4.319-3.78-4.859-1.62-2.699 10.8 4.319 34.02 4.319 35.1-2.16 36.18-3.779 1.08-10.797-2.7-15.117-8.1-4.319-5.4-10.797-9.18-13.497-8.1-5.939 2.7-12.417-5.4-14.037-17.82a12.416 12.416 0 00-9.178-10.8 24.301 24.301 0 01-12.958-9.18 10.796 10.796 0 00-10.797-5.4 30.236 30.236 0 01-15.117 0c-7.019-1.62-9.718-4.86-9.718-12.96 0-13.5-5.399-18.36-10.798-8.64-3.24 5.4-3.78 2.16-2.7-11.88 1.08-15.12 0-19.44-6.479-22.68-3.779-2.159-7.018-5.399-6.478-8.639 1.08-10.8-1.08-14.58-9.178-13.5-6.479 1.08-9.179-1.08-10.258-7.56-1.08-7.56-2.7-8.1-16.197-6.48-9.178 1.62-15.657.54-15.657-1.62s-7.019-3.24-16.197-2.7c-13.497 0-16.736 2.16-17.816 8.64a14.047 14.047 0 01-7.559 10.26c-5.938 2.7-10.797-6.48-8.098-14.58 3.779-9.72-2.699-13.5-19.436-11.34-12.418 1.62-16.197 3.78-18.356 10.8-2.16 8.64-17.817 16.2-17.817 8.1 0-2.16-2.699 0-5.939 4.86-4.859 6.48-5.399 9.72-1.619 14.04 3.779 4.319 2.699 5.939-2.7 9.179-6.479 3.78-6.479 4.32 2.16 12.42 5.939 5.4 8.098 10.8 6.478 16.74a64.816 64.816 0 00-2.159 12.96 5.4 5.4 0 01-5.399 5.4c-7.559 0-8.098 13.5-1.62 17.82 10.798 6.48-15.117 7.56-30.234 1.08-14.577-5.94-17.816-5.94-26.994-1.62a42.115 42.115 0 01-12.958 5.4c-12.417-2.16-16.196 1.08-15.657 11.88a28.078 28.078 0 01-3.779 16.74c-4.319 5.4-3.779 7.02 2.7 10.26 3.779 2.16 8.638 2.7 9.718 1.62 1.079-1.08 2.699-.54 2.699 2.16s-6.479 4.32-15.657 4.32c-16.196 0-15.117-1.62-21.595 36.179-2.16 10.8-4.32 14.58-10.798 14.58-16.197 0-22.136-7.56-22.136-25.38 0-9.18-2.16-18.36-4.319-19.44a16.193 16.193 0 01-3.24-12.959c1.62-27 0-33.48-11.337-39.96-9.178-5.4-11.338-9.72-13.497-25.38-1.08-10.26-3.78-19.44-6.479-19.98-5.399-2.16-15.657-21.6-15.657-31.859a18.367 18.367 0 00-7.558-12.42c-5.94-4.86-7.559-12.42-9.718-52.92L0 527.31l9.178 9.72c8.638 9.18 10.798 9.72 17.817 5.4a11.88 11.88 0 0116.196 0c6.48 4.32 7.559 4.32 7.559-4.32a16.203 16.203 0 013.78-11.88c2.159-1.62 3.778-1.079 3.778.541 0 3.239 18.357 12.959 24.295 12.959 5.94 0 2.7-11.34-3.779-15.12-6.478-3.779-5.939-4.319-.54-5.939 7.559-3.24 26.995 3.779 26.995 9.719 0 5.94 16.197 0 20.516-6.48a11.344 11.344 0 018.638-5.4c3.239 0 5.399-1.619 5.399-3.779s3.779-4.32 8.098-5.4c9.718-2.7 10.798-22.68 2.16-38.88a34.018 34.018 0 01-3.779-19.98c2.159-7.56 0-9.72-9.178-11.88-9.179-2.16-11.338-3.78-10.798-14.04a34.557 34.557 0 019.178-19.439c10.258-9.18 10.258-10.8 2.159-21.6-5.398-8.64-5.398-9.18 3.78-12.96a21.6 21.6 0 0012.417-14.04c2.16-9.18.54-12.96-11.877-23.76l-14.577-13.5 10.797-11.34c12.958-14.58 16.197-14.58 18.357-3.78 1.619 5.4 5.399 7.56 14.037 7.56 8.098 0 11.338-1.08 9.718-4.32-3.779-5.4 5.939-34.559 15.117-44.819a43.18 43.18 0 0115.117-10.8c7.558-2.7 10.258-18.9 3.779-23.22-2.159-1.08-2.699-5.4-1.62-9.18a9.721 9.721 0 00-2.159-10.8c-6.479-3.78-5.399-13.5 1.62-13.5 3.239 0 8.098-4.32 10.797-9.72 2.7-5.4 6.479-9.72 9.179-9.72 2.699 0 5.398-1.62 5.398-3.78 0-2.16 3.78-5.4 8.639-8.1 7.018-3.78 7.558-3.78 5.399 1.62-2.7 8.64 3.779 8.1 10.258 0a83.651 83.651 0 0123.755-16.199c19.976-9.18 29.694-7.56 37.792 7.02 6.479 12.959 11.338 8.639 8.639-7.56-1.62-10.8-1.08-16.2 2.159-16.2s3.779-1.62 2.16-3.78c-1.62-2.16 0-3.78 4.859-2.16a304.428 304.428 0 0065.327 10.26c16.196 0 30.774-8.64 26.994-16.2-3.779-7.56 2.16-18.36 10.798-19.98 4.859-.54 8.098-3.24 7.559-5.94-.54-2.7 2.699-4.86 7.018-4.86s7.559-2.7 7.559-6.48c0-7.02 16.196-16.74 25.915-16.74 2.699 0 8.098-5.4 11.877-10.8 9.718-14.58 17.277-19.98 28.614-20.52 13.498 0 17.817-3.78 21.056-17.82 2.16-10.8 4.859-12.42 16.197-14.58a29.15 29.15 0 0124.835 5.4c5.399 4.32 11.338 6.48 12.417 5.4 1.08-1.08 4.32 1.08 7.019 4.32 2.7 3.24 3.779 7.02 1.62 8.64-5.399 3.78-9.718 20.52-5.399 20.52 2.159 0 5.399 3.78 8.098 8.64 5.399 10.8 4.859 91.8-1.08 98.82a49.659 49.659 0 01-18.896 9.719c-11.877 3.78-16.196 3.24-24.295-1.62-14.037-9.719-26.994-48.599-26.994-83.699 0-10.8-6.479-7.56-12.418 6.48a54.015 54.015 0 00-6.479 25.92 12.421 12.421 0 01-9.178 11.88c-14.577 4.86-25.915 17.82-25.915 30.78a28.08 28.08 0 01-4.859 16.739c-3.239 3.24-3.239 4.86 0 4.86 3.24 0 5.399 3.78 5.399 7.56a9.185 9.185 0 007.434 8.043 9.182 9.182 0 009.843-4.803 32.41 32.41 0 003.239-14.58c0-5.94 2.7-10.26 7.019-10.8 5.399-1.08 6.478 1.62 5.938 11.88-.539 26.46 17.277 39.42 24.836 17.82 4.319-11.88 4.319-11.88 25.914-9.18 12.958 1.62 23.756 5.4 26.995 9.18 3.239 3.78 2.699 7.02.54 7.56-5.939 2.7 0 8.64 8.638 8.64a21.052 21.052 0 0019.436-17.82 12.422 12.422 0 013.863-5.824c1.818-1.531-2.358 505.627 0 505.32z" fill="#F3F6F8"/></svg>