<svg width="1562" height="851" fill="none" xmlns="http://www.w3.org/2000/svg"><mask id="a" style="mask-type:alpha" maskUnits="userSpaceOnUse" x="0" y="0" width="1562" height="851"><path d="M1339.59 847.347c4.75-3.653 4.75-4.018.37-17.169a79.751 79.751 0 00-9.13-18.995c-3.65-5.114-4.01-6.94-1.09-12.785 1.82-3.653 4.74-6.94 6.2-7.306l7.3-.365c6.2-.365 9.12-9.863 5.47-16.803a7.366 7.366 0 01-1.1-4.506 7.336 7.336 0 011.83-4.261c3.29-3.653 2.92-4.384-5.47-22.648-2.55-5.48-2.92-8.037-.36-10.959 2.55-2.923 2.18-4.384-1.1-7.306a14.285 14.285 0 01-3.65-9.498c0-3.287-1.09-6.21-2.19-6.21-2.19 0-9.85 10.959-9.12 13.516 0 1.096-2.56 3.288-6.2 5.114a17.85 17.85 0 00-8.03 9.498c-.73 3.653-2.56 6.21-3.65 6.21a12.809 12.809 0 00-5.84 3.653c-5.84 5.479-13.87 2.191-19.34-7.306-3.28-6.21-6.57-8.767-11.31-9.132l-16.79-1.462c-5.47-.73-10.58 0-10.95 1.096-2.19 3.288-11.67.731-19.34-4.748a59.441 59.441 0 00-17.51-10.229c-5.11-1.461-5.11-1.826.73-3.653l6.2-1.461-6.93-7.306a28.768 28.768 0 01-6.57-9.862c0-.369-.07-.735-.22-1.071a2.647 2.647 0 00-.65-.88 2.548 2.548 0 00-2.05-.606 27.015 27.015 0 01-9.85-6.576c-6.57-6.21-8.4-6.575-26.64-5.479-28.46 2.192-31.75 2.557-31.75 5.479 0 1.462-4.01 5.48-9.12 8.767-10.58 6.576-11.68 10.959-3.65 15.708 5.47 3.653 6.93 16.073 1.82 21.187-1.82 1.461-3.28 10.958-3.64 20.821 0 15.708-.73 18.63-7.3 25.571l-7.3 7.671-11.68-4.018c-9.49-3.653-12.41-3.653-16.05-1.096-3.65 2.557-5.84 2.922-11.68 0-6.57-3.653-8.39-3.288-16.79 1.826a25.5 25.5 0 00-10.94 11.324c-1.1 4.384-3.65 6.575-9.86 7.671a27.721 27.721 0 00-13.5 6.941c-2.55 2.922-5.84 4.383-7.3 3.653a60.131 60.131 0 00-17.878-1.096c-12.407.365-16.056-.365-20.435-5.114a10.946 10.946 0 00-10.948-4.384 6.57 6.57 0 01-8.028-3.653c-3.284-6.209-21.894-7.305-32.842-1.095a33.907 33.907 0 01-12.407 3.652c-5.473 0-20.07-14.611-20.07-19.725 0-3.653-13.137-11.69-19.705-11.69-6.569 0-23.719-9.862-25.544-14.976-1.46-3.653-1.825-3.653-2.189 1.461a29.246 29.246 0 01-6.569 14.246c-6.933 8.036-8.758 20.091-3.649 24.84 1.825 2.192.73 4.749-4.014 9.497-5.474 5.845-8.393 6.576-15.326 5.48a34.645 34.645 0 01-11.677-4.384 5.47 5.47 0 00-5.474-.73c-2.919 1.461-9.488-5.48-12.042-12.42-1.095-3.653-3.649-4.749-10.218-4.018-4.744.365-9.852-.731-10.947-2.192-2.19-2.557-6.204-1.827-17.516 2.192a74.412 74.412 0 01-21.895 5.114c-5.108 0-7.298.73-5.838 3.653 1.459 3.652-2.555 5.844-16.421 8.036a59.393 59.393 0 00-11.312 2.557c-1.095.731-4.744-1.461-8.029-5.114a25.536 25.536 0 00-14.961-7.306c-8.028-.73-9.488-2.192-11.677-9.497-1.46-4.749-4.014-8.402-6.204-8.402-2.189 0-3.649-3.288-3.649-8.037 0-6.575-1.459-8.767-9.123-12.419-6.568-2.923-9.852-3.653-12.042-1.462-4.379 4.384-12.772.731-16.786-7.305-4.014-8.037-11.677-10.229-11.677-3.653a3.668 3.668 0 01-1.194 2.721 3.66 3.66 0 01-2.82.932c-3.284 0-4.014-3.653-4.014-16.439a129.78 129.78 0 00-4.014-30.319c-2.554-7.671-3.649-14.611-2.919-15.342.73-.731-1.825-4.018-5.109-8.036-8.028-8.402-8.028-9.863-.365-12.42 5.109-1.461 4.379-2.192-4.744-3.653-7.298-1.827-10.947-1.461-13.866 1.461-3.649 3.653-13.502 3.288-22.625-.365-3.649-1.827-3.649-2.557-1.095-4.384 2.555-1.826 2.19-2.922-1.824-6.21a20.074 20.074 0 00-8.393-3.653c-1.825 0-2.554-2.191-1.825-4.383 1.095-2.922 0-3.653-5.108-3.653-6.569 0-9.488-4.749-5.109-9.132a25.593 25.593 0 002.554-10.959c.365-7.306-.365-9.132-4.744-9.132a17.875 17.875 0 01-10.217-5.114c-4.014-4.019-6.569-4.384-12.772-2.923-8.758 2.557-32.477-1.461-59.481-10.228a121.787 121.787 0 00-19.705-5.114 15.683 15.683 0 01-8.393-4.383c-2.554-2.192-5.839-3.653-7.298-2.557-3.649 2.557-5.474 15.707-2.19 19.725 2.555 3.653 2.555 3.653-1.459.731-6.934-5.48-16.421-2.923-15.692 4.018.73 6.941-6.568 8.402-12.407 2.557-2.919-2.557-3.284-1.096-1.824 7.306 2.919 23.013 2.919 23.744-1.46 24.474-2.554.731-7.298-1.826-10.217-5.479-2.92-3.653-7.299-6.21-9.123-5.479-4.014 1.826-8.393-3.653-9.488-12.055a8.404 8.404 0 00-6.203-7.306 16.414 16.414 0 01-8.758-6.21 7.303 7.303 0 00-7.298-3.653 20.419 20.419 0 01-10.218 0c-4.744-1.096-6.568-3.287-6.568-8.767 0-9.132-3.649-12.42-7.299-5.844-2.189 3.653-2.554 1.461-1.824-8.037.73-10.228 0-13.15-4.379-15.342-2.554-1.461-4.744-3.653-4.379-5.845.73-7.305-.73-9.862-6.204-9.132-4.378.731-6.203-.73-6.933-5.114-.73-5.114-1.824-5.479-10.947-4.383-6.204 1.095-10.583.365-10.583-1.096s-4.744-2.192-10.947-1.827c-9.123 0-11.312 1.461-12.042 5.845a9.49 9.49 0 01-5.109 6.94c-4.014 1.827-7.298-4.383-5.474-9.862 2.555-6.576-1.824-9.133-13.136-7.672-8.393 1.096-10.948 2.557-12.407 7.306-1.46 5.845-12.042 10.959-12.042 5.48 0-1.462-1.825 0-4.014 3.287-3.285 4.384-3.65 6.575-1.095 9.498 2.554 2.922 1.824 4.018-1.825 6.21-4.379 2.557-4.379 2.922 1.46 8.401 4.014 3.653 5.474 7.306 4.379 11.325a43.9 43.9 0 00-1.46 8.766 3.652 3.652 0 01-3.649 3.653c-5.109 0-5.474 9.133-1.095 12.055 7.299 4.383-10.217 5.114-20.435.731-9.852-4.019-12.042-4.019-18.245-1.096a28.475 28.475 0 01-8.758 3.653c-8.393-1.462-10.948.73-10.583 8.036a19.01 19.01 0 01-2.554 11.324c-2.92 3.653-2.555 4.749 1.825 6.941 2.554 1.461 5.838 1.826 6.568 1.095.73-.73 1.825-.365 1.825 1.462 0 1.826-4.38 2.922-10.583 2.922-10.947 0-10.218-1.096-14.597 24.474-1.46 7.306-2.919 9.863-7.298 9.863-10.947 0-14.961-5.114-14.961-17.168 0-6.21-1.46-12.42-2.92-13.151a10.96 10.96 0 01-2.189-8.767c1.095-18.264 0-22.648-7.663-27.031-6.203-3.653-7.663-6.576-9.123-17.169-.73-6.941-2.554-13.151-4.379-13.516-3.649-1.461-10.582-14.611-10.582-21.552a12.43 12.43 0 00-5.109-8.402c-4.014-3.287-5.109-8.401-6.568-35.798L0 477.307l6.204 6.575c5.838 6.21 7.298 6.576 12.042 3.653a8.026 8.026 0 0110.947 0c4.379 2.923 5.109 2.923 5.109-2.922a10.97 10.97 0 012.554-8.036c1.46-1.096 2.554-.731 2.554.365 0 2.192 12.408 8.767 16.422 8.767 4.014 0 1.824-7.671-2.555-10.228-4.379-2.557-4.014-2.923-.365-4.019 5.109-2.191 18.246 2.558 18.246 6.576s10.947 0 13.867-4.384a7.664 7.664 0 015.838-3.653c2.19 0 3.65-1.096 3.65-2.557 0-1.461 2.554-2.922 5.473-3.653 6.568-1.826 7.298-15.342 1.459-26.301a23.035 23.035 0 01-2.554-13.515c1.46-5.114 0-6.576-6.203-8.037-6.204-1.461-7.663-2.557-7.299-9.497a23.388 23.388 0 016.204-13.151c6.933-6.21 6.933-7.306 1.46-14.611-3.65-5.845-3.65-6.21 2.554-8.767a14.607 14.607 0 008.393-9.498c1.46-6.21.365-8.767-8.028-16.073l-9.853-9.132 7.298-7.671c8.758-9.863 10.948-9.863 12.407-2.557 1.095 3.653 3.65 5.114 9.488 5.114 5.474 0 7.663-.731 6.569-2.923-2.555-3.652 4.014-23.378 10.217-30.319a29.188 29.188 0 0110.218-7.305c5.108-1.827 6.933-12.786 2.554-15.708-1.46-.731-1.825-3.653-1.095-6.21a6.583 6.583 0 00-1.459-7.306c-4.379-2.557-3.649-9.132 1.094-9.132 2.19 0 5.474-2.922 7.299-6.575 1.824-3.653 4.379-6.576 6.203-6.576 1.825 0 3.649-1.095 3.649-2.557 0-1.461 2.555-3.653 5.839-5.479 4.744-2.557 5.109-2.557 3.649 1.096-1.825 5.845 2.554 5.479 6.933 0a56.565 56.565 0 0116.056-10.959c13.502-6.21 20.071-5.114 25.544 4.749 4.379 8.767 7.663 5.845 5.839-5.114-1.095-7.306-.73-10.959 1.459-10.959 2.19 0 2.555-1.096 1.46-2.557-1.095-1.461 0-2.557 3.284-1.461a205.62 205.62 0 0044.155 6.94c10.947 0 20.8-5.844 18.245-10.958-2.554-5.114 1.46-12.42 7.298-13.516 3.285-.365 5.474-2.192 5.109-4.018-.365-1.827 1.825-3.288 4.744-3.288 2.919 0 5.109-1.826 5.109-4.383 0-4.749 10.947-11.324 17.516-11.324 1.824 0 5.473-3.653 8.028-7.306 6.568-9.863 11.677-13.516 19.34-13.881 9.123 0 12.042-2.557 14.232-12.055 1.459-7.306 3.284-8.402 10.947-9.863a19.693 19.693 0 0116.786 3.653c3.649 2.923 7.663 4.384 8.393 3.653.73-.73 2.919.731 4.744 2.922 1.824 2.192 2.554 4.749 1.094 5.845-3.649 2.557-6.568 13.881-3.649 13.881 1.46 0 3.649 2.557 5.474 5.845 3.649 7.306 3.284 62.099-.73 66.848a33.57 33.57 0 01-12.772 6.575c-8.028 2.557-10.947 2.192-16.421-1.096-9.487-6.575-18.245-32.876-18.245-56.62 0-7.306-4.379-5.114-8.393 4.384a36.55 36.55 0 00-4.379 17.534 8.418 8.418 0 01-1.752 5.063 8.387 8.387 0 01-4.452 2.973c-9.852 3.288-17.516 12.055-17.516 20.822a19.01 19.01 0 01-3.284 11.324c-2.189 2.192-2.189 3.287 0 3.287 2.19 0 3.649 2.557 3.649 5.115a6.204 6.204 0 008.888 4.918 6.207 6.207 0 002.79-2.727 21.943 21.943 0 002.189-9.863c0-4.018 1.825-6.94 4.744-7.305 3.649-.731 4.379 1.095 4.014 8.036-.365 17.899 11.677 26.666 16.786 12.055 2.919-8.037 2.919-8.037 17.516-6.21 8.757 1.096 16.056 3.653 18.245 6.21 2.19 2.557 1.825 4.748.365 5.114-4.014 1.826 0 5.844 5.839 5.844a14.222 14.222 0 008.686-3.714 14.245 14.245 0 004.45-8.34 8.403 8.403 0 016.934-5.845 21.159 21.159 0 0010.947-7.306c3.284-4.018 6.569-5.844 9.123-4.749 5.109 1.827 5.109 3.653 1.825 12.786-2.19 5.479-3.65 6.575-6.204 4.383-5.839-5.114-14.596-.73-15.691 8.037-1.46 10.228 4.379 16.072 13.502 13.881 16.421-4.019 37.95-2.192 44.519 3.653 3.284 3.652 6.203 4.383 7.298 2.922a9.483 9.483 0 017.298-2.557c5.109 0 5.109 0 .73 5.114-3.649 4.383-4.014 5.845-1.095 9.497a9.122 9.122 0 009.123 2.558 9.855 9.855 0 019.853 3.652 15.306 15.306 0 0012.407 3.653c7.298 0 8.028 0 6.568 5.845-1.459 5.845-.365 5.845 4.744 5.479 8.393-1.096 12.407-3.653 12.407-9.863 0-9.497 7.298-8.401 16.786 1.827 9.488 10.228 13.867 18.63 10.947 21.187-.729.73 1.095 3.653 3.649 6.575a29.968 29.968 0 016.934 12.785c.73 4.384 2.919 8.037 4.744 8.037 5.473 0 9.852-7.306 7.663-13.151a10.96 10.96 0 011.459-9.497c2.19-2.557 2.555-3.653 0-3.653-4.379 0-3.284-7.671 2.555-14.977a25.58 25.58 0 005.473-12.785c0-4.749 1.46-6.576 5.109-6.576 2.555 0 10.948-5.114 17.516-11.689 6.568-6.575 12.772-11.689 13.137-11.689l7.298 2.557c9.123 3.653 8.758 12.054-.73 23.744-5.838 6.575-7.298 10.958-6.568 16.072a12.068 12.068 0 01-2.919 10.959 13.88 13.88 0 00-4.014 6.21 69.106 69.106 0 01-5.474 13.516 29.245 29.245 0 00-3.649 17.534c1.459 4.749.73 7.306-2.555 8.036a4.378 4.378 0 00-2.596 2.133 4.396 4.396 0 00-.323 3.347c.73 2.191-1.095 4.748-5.109 6.21-4.014 1.461-6.568 3.653-6.568 5.114 0 1.461-3.649 4.383-8.393 6.575-8.028 3.653-8.758 3.653-12.042 0-1.825-2.922-3.284-3.653-3.284-2.557s-1.825.73-3.649-1.096c-1.825-1.826-4.379-2.192-4.379-.731 0 6.941 4.014 11.69 12.407 14.977 8.393 3.288 9.852 3.288 20.435-1.461 15.691-6.94 26.273-17.168 27.003-25.57.73-8.402 3.649-11.324 10.948-9.498 7.298 1.827 10.582 12.785 5.838 17.534-3.649 3.653-3.649 14.612 0 14.612a18.965 18.965 0 018.028 5.845l5.474 5.479-1.825-6.21a21.18 21.18 0 00-6.203-9.132c-3.649-2.923-3.649-3.653.365-8.037a18.634 18.634 0 004.744-10.958c0-6.941-9.853-18.63-15.692-18.996a17.132 17.132 0 01-7.298-2.191c-4.379-2.557 0-14.612 7.298-23.014a16.447 16.447 0 004.744-14.611c-1.095-9.133 2.555-14.977 8.393-14.977a18.972 18.972 0 008.758-4.749c5.474-4.384 5.474-4.384 1.46.731a31.063 31.063 0 00-4.744 13.515c-.73 7.306.365 9.133 5.838 11.69 3.65 1.826 6.934 4.018 6.934 5.479 0 1.461 1.824 2.192 3.649 2.192 5.109 0 2.554-8.037-4.014-12.785-5.839-4.019-6.569-10.959-1.095-10.959 2.19 0 4.014 1.096 4.014 2.557 0 1.461 1.825 2.557 4.379 2.557 2.554 0 3.649-1.461 2.919-4.749-.729-3.288 0-5.114 3.649-4.749 2.555 0 4.015 1.096 3.65 2.192-.365 1.096 0 2.192 2.554 2.192s4.744 2.922 5.839 6.575a11.32 11.32 0 007.663 8.402c7.663 1.826 8.393 5.114 1.094 6.94-3.649.731-5.108 3.653-5.108 8.402 0 4.749 1.094 6.21 2.919 5.114 1.824-1.096 1.46.731-.73 4.384a16.451 16.451 0 00-2.554 8.767 86.648 86.648 0 012.554 12.785c.365 2.557 8.393 2.191 8.393-.731a5.482 5.482 0 00-2.919-4.018c-1.46-1.096-1.46-3.653 0-8.402a48.99 48.99 0 002.554-14.611 34.02 34.02 0 012.919-13.151c1.825-3.653 1.825-6.21 0-8.036a10.972 10.972 0 01-2.919-6.941 9.866 9.866 0 00-3.649-6.575c-3.284-2.192-3.649-5.479-2.554-12.42l1.459-9.863 18.246.365c12.772.366 18.245 1.462 18.245 3.653 0 2.192 1.46 2.923 5.109 1.096 3.649-1.826 4.744-5.114 4.014-13.15 0-7.306.73-10.959 3.649-12.055 2.92-1.096 2.92-2.192 1.825-3.653-1.825-3.287 14.961-10.958 24.814-10.958 4.744 0 8.758-1.462 9.853-3.653 1.459-4.384 8.758-5.48 8.758-1.462 0 1.462 2.189 2.557 4.743 2.557 5.839 0 18.976-5.844 18.976-8.401 0-1.096 2.554-2.192 5.838-2.192 5.474 0 6.204-1.096 5.109-7.306-1.459-9.863 11.312-23.378 17.151-18.264 2.919 2.191 2.919 3.287 0 5.114-2.919 1.826-2.554 2.557.73 4.749a17.154 17.154 0 007.298 2.557c1.46 0 2.919 2.557 2.919 5.479 0 6.21 5.109 6.94 7.299 1.096 2.189-5.845 13.866-4.384 23.719 2.922 7.298 5.479 8.393 7.306 5.474 9.498-2.92 2.191-2.555 2.922 1.094 5.844 6.569 5.114 5.839 8.767-4.379 19.361-5.108 5.479-9.487 10.959-9.487 12.42 0 1.461-5.109 8.401-11.678 15.342-6.568 6.94-11.677 13.881-11.677 15.707 0 1.827 1.46 1.096 3.649-1.461a12.776 12.776 0 018.758-4.383 7.664 7.664 0 007.298-5.48c1.095-3.652 3.65-5.114 5.474-4.018a8.024 8.024 0 007.298-2.557c5.109-5.114 13.867-5.114 15.692 0a5.846 5.846 0 004.014 4.018c1.459 0 2.189-1.096 1.459-2.191-2.189-3.653 10.218-10.959 18.246-10.959a17.502 17.502 0 0110.947 3.653c5.109 5.114 17.516 5.114 27.369 0 6.571-3.653 7.301-4.749 5.111-9.132-4.02-7.306-1.1-10.594 7.3-8.767a10.198 10.198 0 0010.94-2.557c2.92-3.653 4.02-3.653 10.95 1.095 4.74 3.653 7.3 7.306 6.57 9.498-.2.409-.28.863-.25 1.316.04.452.2.887.46 1.259.26.372.61.668 1.02.857.42.19.87.266 1.32.221 4.38 0 5.11 4.018 1.1 6.575-4.02 2.557 0 7.306 4.01 5.479 2.56-1.095 3.65 0 3.65 3.653a9.878 9.878 0 002.45 5.115 9.81 9.81 0 004.85 2.922c10.58 4.383 18.24 3.653 17.15-.731-.81-3.984-1.42-8.008-1.82-12.054-1.1-7.306-.37-8.402 3.28-6.576 5.84 3.653 13.87.731 13.87-4.748 0-6.21 4.74-7.672 12.4-4.384 7.67 3.288 14.96-2.192 8.4-6.21-3.29-2.192-2.92-2.922 1.82-4.018 4.74-1.096 5.47-2.557 2.92-8.767a27.745 27.745 0 00-5.47-8.402c-1.46-1.096-1.46-4.018-.37-6.575a18.748 18.748 0 001.83-6.21c0-.731 4.74-4.018 10.94-7.306 9.13-4.749 10.95-5.114 11.68-1.826 1.1 4.749 5.47 5.479 5.84.73 0-1.826 1.09-.365 2.19 3.288 2.92 10.228 6.93 7.671 7.66-4.749.73-9.132 2.19-11.689 7.3-13.881 9.85-3.653 12.04-2.922 10.22 2.557-1.46 4.749-.73 4.749 9.49 2.557a37.534 37.534 0 0114.96-1.096c4.38 1.827 16.42-8.036 16.42-13.15a29.96 29.96 0 016.93-11.69c5.47-6.575 8.39-8.036 18.25-8.036 7.29 0 11.67 1.461 12.77 4.018 3.28 8.402 23.72 2.192 22.62-7.306-.4-3.685.33-7.407 2.09-10.669a18.25 18.25 0 017.77-7.595 20.077 20.077 0 009.48-10.228c2.19-5.48 4.38-7.306 7.3-6.941 1.09.462 2.28.603 3.45.409a6.206 6.206 0 003.12-1.505 6.202 6.202 0 016.57-1.461 8.381 8.381 0 007.66-2.557c4.38-5.114-1.46-11.324-10.95-11.324-10.21 0-11.31-6.21-2.55-15.707 4.01-4.384 6.93-8.037 6.2-8.037-.73 0 1.1-3.653 3.65-8.401 7.3-12.786 17.52-20.822 41.6-32.877 4.4-2.258 8.55-4.95 12.41-8.036 2.55-2.192 5.47-3.288 6.93-2.192 1.46 1.096 3.29-.365 4.02-2.557.16-.595.44-1.149.84-1.626.39-.477.87-.866 1.42-1.142a4.396 4.396 0 013.58-.154c3.28 1.461 3.64.73 2.55-2.557-1.46-3.653 0-4.018 14.23-2.923 12.41 1.096 15.69.731 15.69-2.191 0-2.192-2.55-3.653-6.57-3.653-7.29 0-8.02-1.461-2.19-7.306a8.355 8.355 0 002.17-3.341c.45-1.271.58-2.631.39-3.965-.73-2.192 1.09-4.383 4.38-5.48a57.583 57.583 0 0013.13-6.574c7.67-5.48 7.3-5.48 8.4 6.575a8.01 8.01 0 002.92 5.114c1.46 1.096 1.09 2.922-1.46 4.383-2.56 1.461-2.92 3.288-2.19 3.653 1.09 1.827 10.95 3.653 17.51 4.384 1.83 0 2.56 1.46 1.46 3.287-1.09 1.827-.36 2.557 2.56 1.096 2.92-1.46 4.38 0 4.38 2.192s-1.1 4.018-2.56 4.018-2.55.73-2.19 1.827c.37 1.096-2.92 5.844-7.3 10.228-6.2 6.575-8.75 7.67-12.4 5.48-3.65-2.193-5.11-1.827-8.4 2.19a21.901 21.901 0 00-3.64 10.96c0 4.748-1.83 6.21-6.94 6.21a10.952 10.952 0 01-8.03-2.923c-2.19-3.653-5.47-2.922-7.29 1.827-1.83 4.749 5.83 11.689 12.04 9.863 3.28-1.096 5.84 1.826 9.85 9.497 5.84 11.689 4.38 18.265-5.11 23.744-3.65 1.461-4.74 4.018-3.65 6.941 1.46 3.653 2.19 3.653 4.75 0a12.337 12.337 0 014.09-3.166c1.57-.755 3.29-1.17 5.03-1.218 2.92 0 5.47-1.461 5.47-2.922 0-3.288 10.95-.366 13.5 3.653 1.1 1.461 2.56 1.461 3.65-.366 2.19-3.653 20.44-3.287 22.99.731 2.56 4.018-7.66 14.612-12.77 14.612-4.38 0-4.74 4.383-.36 5.844 1.82.731 3.65 8.037 3.65 20.091a134.6 134.6 0 003.64 27.762c1.47 4.559 2.69 9.193 3.65 13.881l3.65 14.612c2.56 9.132 2.56 9.863-3.65 9.863-7.66 0-13.86 10.959-14.59 25.936-.37 9.132-1.1 10.228-4.38 7.306-3.29-2.923-3.65-1.827-2.56 8.036 1.1 8.036.73 10.959-1.82 10.959-5.47 0-6.93 11.324-1.82 18.264l10.94 18.265c6.57 12.054 15.69 17.899 15.69 9.863 0-.56.12-1.114.34-1.627.22-.513.55-.974.97-1.352a3.96 3.96 0 011.42-.845c.53-.179 1.1-.245 1.65-.195 2.92 0 3.65 1.462 2.92 4.749-.73 3.288 0 5.845 5.48 7.306 2.96.845 6.04 1.215 9.12 1.096 2.48-.136 4.96.237 7.3 1.096 5.84 1.826 6.93 9.132 1.09 9.132-.58.088-1.13.292-1.63.599-.5.306-.93.71-1.27 1.187a4.42 4.42 0 00-.75 3.328c0 6.941 9.85 18.63 15.69 18.63a6.579 6.579 0 013.8.801 6.54 6.54 0 012.68 2.806c.59 1.184.81 2.519.63 3.831a6.63 6.63 0 01-1.63 3.521 22.66 22.66 0 00-2.92 12.785c-.4 2.77-.03 5.596 1.06 8.171a15.376 15.376 0 005.14 6.441c5.84 4.383 6.2 5.114 2.92 14.611-2.92 8.037-2.92 10.228-.36 10.228 4.37 0 14.59 24.11 14.59 34.338 0 10.228-6.57 10.228-16.05 0a84.644 84.644 0 00-18.25-13.151c-21.89-11.689-62.76-48.949-62.76-58.081 0-6.941-5.48-18.265-8.76-18.265-1.46 0-1.46-1.461.36-3.287 4.75-4.749 4.02-32.146-.73-36.529a12.112 12.112 0 01-3.65-7.671 8.339 8.339 0 00-.72-3.617 8.26 8.26 0 00-2.2-2.959c-2.19-1.096-2.19-2.922 0-5.114 2.19-2.192 1.46-6.94-1.82-15.707-3.65-10.228-4.01-13.151-1.09-17.534 3.64-6.21 2.18-9.133-10.95-21.187a20.312 20.312 0 01-5.23-6.167 20.41 20.41 0 01-2.44-7.714c0-8.037-3.64-8.767-9.12-2.192-5.47 6.575-4.38 10.593 1.83 17.169a23.105 23.105 0 015.11 13.881c0 5.633.49 11.255 1.45 16.803 1.1 6.575.73 8.037-2.91 7.306a16.026 16.026 0 01-8.03-6.21c-4.75-6.575-9.13-7.306-9.13-1.826a4.022 4.022 0 01-1.29 2.608 4.037 4.037 0 01-2.72 1.044 6.614 6.614 0 00-3.63 1.847 6.563 6.563 0 00-1.84 3.633c-.73 2.922-2.56 5.114-3.65 5.114-3.65 0-5.84 16.073-2.56 19.726 1.46 2.191 3.65 10.958 4.38 18.995a82.176 82.176 0 005.48 23.013c3.65 7.306 3.65 7.306 8.75 2.557 2.92-2.557 5.11-3.287 5.11-1.461a19.338 19.338 0 01-6.57 8.767 18.266 18.266 0 00-6.56 9.498c0 2.191-1.83 2.922-5.11 2.191-3.29-.73-5.84-.73-6.57.731-.73 1.461-4.02 1.826-6.93 1.096-3.65-1.096-5.11 0-5.11 2.922 0 2.192-1.1 4.018-2.19 3.653-7.67-1.096-11.32 1.461-12.77 8.402-1.46 8.036-5.11 12.054-14.97 17.168a9.11 9.11 0 00-3.5 2.987 9.006 9.006 0 00-1.6 4.319c0 3.288-.73 3.653-2.92 2.192-2.19-1.461-6.21 0-12.78 6.21-14.59 13.516-18.61 20.821-16.78 31.05 1.09 4.748.73 9.497 0 10.958-.73 1.462-2.56 7.306-2.56 14.612s-1.82 14.612-3.65 16.803c-1.82 2.192-2.55 10.959-2.18 20.457.36 9.497-1.1 19.725-2.92 22.648a30.173 30.173 0 00-2.92 12.054c.12 1.442-.04 2.895-.48 4.274a10.906 10.906 0 01-2.08 3.763c-.9.9-1.6 1.988-2.04 3.187a8.72 8.72 0 00-.51 3.753c0 3.653 1.82 5.114 7.66 5.114 3.37.371 6.76-.542 9.49-2.557.73-1.461 4.38.366 7.66 4.384 5.11 5.845 6.57 6.575 6.57 2.557 0-5.48 5.47-6.21 5.47-.365a3.84 3.84 0 001.13 2.712 3.81 3.81 0 002.71 1.123c1.01 0 1.99-.404 2.7-1.123a3.84 3.84 0 001.13-2.712c-.06-.542 0-1.09.19-1.604.18-.513.47-.98.86-1.365a3.637 3.637 0 012.96-1.05c4.38 0 5.47-6.94 1.1-9.497-5.11-2.922 3.64-9.498 10.94-8.037 15.69 3.288 23.72 5.845 23.72 7.306a44.656 44.656 0 009.12 11.69c6.21 5.844 9.13 10.958 8.03 13.515-2.19 5.114 3.65 23.014 8.76 29.224a109.574 109.574 0 0111.68 18.629c7.3 13.882 7.3 14.247 5.84 61.735-1.1 50.41-1.83 59.177-5.11 64.291a14.56 14.56 0 00-.73 9.498c2.19 8.036-7.3 29.223-16.42 37.625-5.84 5.114-8.76 5.844-18.25 4.383l-10.95-1.461-1.82 10.959c-1.1 8.401-2.55 10.593-6.93 10.593-5.11 0-5.11 0-.73-3.653h.36zm126.63-130.774c-3.65-4.384-6.57-9.863-5.48-12.055 1.1-2.192 0-3.653-1.09-3.653-2.56 0-10.59-14.611-10.59-19.725 0-1.827-3.64-5.845-8.75-8.767a35.104 35.104 0 01-12.41-14.247 114.03 114.03 0 00-12.41-20.091 123.863 123.863 0 01-12.4-20.456c-2.44-5.845-5.48-8.767-9.13-8.767-5.47 0-16.05-8.402-16.05-12.785a10.616 10.616 0 00-3.65-5.48 10.98 10.98 0 01-4.02-7.305 17.07 17.07 0 00-4.38-9.133c-3.64-3.653-3.64-5.479-1.45-7.306 4.74-2.557 1.09-16.072-4.75-17.534-2.92-.73-4.38-2.922-3.65-5.114 2.19-5.479 6.21-4.383 9.13 3.288a14.58 14.58 0 007.66 8.036c2.92.731 5.11 3.288 5.11 5.115.16 1.278.7 2.479 1.55 3.453a6.54 6.54 0 003.19 2.026c8.03 2.922 11.31 6.575 8.76 9.863-2.92 3.653 3.65 12.054 13.5 16.438 4.01 1.826 7.3 4.383 7.3 6.21a2.912 2.912 0 002.92 2.557c1.82 0 10.22 6.21 19.34 14.246a136.017 136.017 0 0025.54 18.265l9.13 3.653-12.78.365c-15.32.365-16.78 3.288-10.94 20.456 5.83 17.169 13.86 29.954 19.34 29.954 3.42.383 6.69 1.641 9.48 3.653a12.405 12.405 0 009.49 2.922c5.84-1.826 12.41 11.69 7.3 14.612-.86.57-1.85.903-2.87.967a5.818 5.818 0 01-2.97-.602c-1.09-.73-.73-2.557 1.46-3.653 2.56-1.461 2.56-2.191 0-2.191-5.47 0-13.14 9.497-10.95 13.515 6.57 10.229 0 9.863-9.12-.73h-.36zm-11.68-8.767c0-2.922.36-4.384 1.46-3.653.45.777.68 1.659.68 2.557 0 .898-.23 1.78-.68 2.557-.73 2.192-1.46 1.827-1.46-1.461zm73.35-11.324c0-7.306 1.46-10.959 4.37-12.42 3.65-1.461 3.65 0 2.56 8.402-2.92 14.611-6.93 17.168-6.93 4.018zm9.85-18.265c-3.65-3.653-2.19-26.666 2.19-28.127 1.09-.541 2-1.374 2.65-2.405a6.638 6.638 0 001-3.44c0-2.192 1.46-3.653 2.92-3.653 3.65 0 3.28 2.923-1.46 13.881a24.807 24.807 0 00-2.19 13.151c1.46 4.749-2.56 13.516-5.11 10.959v-.366zm14.23-52.602c0-4.748.73-9.497 2.19-10.228 3.28-1.826 3.28 5.845 0 13.151-1.83 4.748-2.19 4.018-2.19-2.923zm8.03-40.182c0-3.653.73-5.479 1.46-3.653a10.28 10.28 0 010 6.576c-1.1 2.191-1.46.73-1.46-2.923zm-262.01-13.515c-1.09-1.462-.36-2.558 1.1-2.558.65.078 1.25.372 1.72.836.46.464.75 1.07.83 1.722 0 1.461-.36 2.922-1.09 2.922-.73 0-1.83-1.096-2.56-2.557v-.365zm252.16-34.338c-2.19-3.653-.37-5.114 3.64-2.557 2.56 1.461 2.56 2.922.73 3.653a3.63 3.63 0 01-4.37-.731v-.365zm-3.65-18.264c.07-.484.27-.938.59-1.308a2.558 2.558 0 013.86-.011 2.577 2.577 0 01.41 2.729c-.2.446-.53.826-.94 1.094-.4.268-.88.413-1.37.418-.68 0-1.33-.269-1.81-.749a2.59 2.59 0 01-.74-1.808v-.365zm-2.92-14.612a17.863 17.863 0 010-4.384c-.09-2.583-.84-5.1-2.19-7.305a5.82 5.82 0 01-1.1-3.717 5.815 5.815 0 011.46-3.589c3.65-3.653 8.4-4.018 5.84-.365a5.42 5.42 0 00-.31 3.083 5.412 5.412 0 001.41 2.761c1.82 2.192 1.46 5.114-1.1 9.863-2.19 3.653-3.65 5.479-4.01 4.018v-.365zM1372.8 399.865c0-.365 1.09-1.826 2.55-2.557 1.46-.73 2.56-.365 2.56 1.096a2.555 2.555 0 01-2.56 2.557c-1.46 0-2.55 0-2.55-1.096zM562.694 280.05c0-4.384 1.095-7.671 2.554-7.671 1.46 0 2.555 3.653 2.555 7.671 0 4.018-1.095 8.036-2.555 8.036-1.459 0-2.554-3.653-2.554-8.036zm364.547-10.228c-1.095-1.096 0-2.923 2.189-3.653 2.19-.731 4.015-.731 4.015.73 0 3.653-4.379 5.845-6.204 2.923zm-259.452-10.594c-2.555-1.826-2.555-2.557 0-4.018 3.649-2.192 6.203-.365 4.744 3.653-.73 1.461-2.555 1.826-4.379.365h-.365zm-116.772-8.036c-5.474-6.575-6.569-9.498-4.014-12.055 3.649-4.748.73-17.168-4.379-17.168-3.284 0-3.649-1.096-1.46-4.749a6.56 6.56 0 017.663-3.653c3.285.731 8.028-1.461 12.407-5.479 8.393-8.037 11.313-8.402 18.246-2.923 5.109 3.653 5.109 4.018-6.203 13.881-10.218 9.498-11.678 11.69-13.137 25.571l-1.46 15.342-7.663-8.767zm-65.684-1.827c-2.92-3.287-1.825-5.844 3.649-8.767 4.379-2.191 5.838-2.191 7.298 1.462 1.825 5.844-6.568 11.689-10.947 7.305zm613.047-32.876c-2.91-8.401 4.38-12.785 14.97-8.401 6.2 2.191 5.1 4.748-2.56 8.401-8.76 3.653-10.95 3.653-12.41 0zm-512.332-12.785c-1.824-3.653-1.824-5.114 0-5.114 1.825 0 2.555-1.461 2.19-3.288-.365-1.826 1.095-2.922 3.649-2.557 2.554.366 4.744 0 4.744-1.461s3.649-4.018 8.028-5.845c4.379-1.826 7.663-4.018 7.663-5.114 0-1.095 3.284-1.826 6.933-2.191a32.814 32.814 0 0010.948-2.923 13.493 13.493 0 0110.582 0 13.125 13.125 0 008.758.731 6.568 6.568 0 016.569 1.826c2.189 2.192 8.392 2.557 18.245 1.462 10.947-1.096 14.597-.366 15.691 2.557a6.206 6.206 0 010 5.479c-2.554 2.557-27.368 5.479-30.652 3.653-1.46-1.096-8.758-.731-16.421.365l-21.165 2.922a16.781 16.781 0 00-9.123 3.288 14.582 14.582 0 01-8.393 2.922 15.693 15.693 0 00-9.488 4.749c-3.649 5.114-5.473 5.114-8.758-1.461zm502.852 4.384c0-.731 1.09-1.827 2.55-2.923 1.46-1.096 2.56 0 2.56 1.461a2.557 2.557 0 01-2.56 2.557c-1.46 0-2.55-.73-2.55-1.095zM71.888 203.339a33.98 33.98 0 01-4.38-8.037 8.386 8.386 0 00-8.028-4.748 10.949 10.949 0 01-8.393-2.557c-1.094-1.827.73-2.192 5.11-1.096 5.473 1.461 6.933.73 6.933-3.653a6.58 6.58 0 011.924-4.65 6.565 6.565 0 019.289 0 6.58 6.58 0 011.924 4.65c0 1.096 1.824 2.191 3.649 2.191 3.649 0 4.379 2.192 3.649 9.863-.73 10.229-6.933 14.612-11.677 8.037zm994.022-3.288c-6.57-2.922-12.04-15.342-9.49-21.187 1.46-4.749 4.38-5.114 11.68-1.096 6.2 3.653 9.85 1.096 5.47-3.653-5.11-4.748-3.65-5.844 8.39-6.209 12.05-.366 19.34 3.652 16.06 9.497-2.55 4.384-11.31 3.288-14.6-1.826-1.82-3.288-2.55-3.653-1.82-.731a14.245 14.245 0 006.93 6.941l5.48 2.922-7.3 4.749a20.826 20.826 0 01-9.49 4.383c-1.09-.365-1.46 1.096-.73 3.288 1.82 4.749-3.65 6.21-10.95 2.922h.37zm-211.651-16.073a49.69 49.69 0 005.838-13.515 2.915 2.915 0 01.432-2.419 2.918 2.918 0 012.123-1.234 2.541 2.541 0 011.948.873 2.548 2.548 0 01.606 2.049 2.55 2.55 0 00.872 1.951 2.555 2.555 0 002.047.606c4.379 0 10.948 7.671 9.488 11.324a13.5 13.5 0 01-8.758 5.114 305.906 305.906 0 00-13.867 3.653l-5.838 1.461 5.109-9.863zm-21.165-10.593c-9.123-4.749-9.853-14.612-1.46-20.822 7.298-5.114 10.947-5.114 8.758 0-1.095 3.288 0 3.653 3.649 2.557 5.839-1.826 9.123 2.557 6.568 8.767a20.11 20.11 0 00-1.459 9.133c.73 5.479-6.204 5.844-16.056.365zm270.396-8.402c-1.46-2.557 3.65-7.306 9.13-7.671a90.276 90.276 0 0010.21-2.557c6.57-1.826 6.57-1.826 2.56 4.384-4.02 6.209-19.34 10.228-21.9 5.844zm-286.087-10.228c-3.285-3.288-1.825-6.21 2.189-4.383 2.189.73 3.649 2.557 3.649 3.652 0 2.923-3.649 3.288-5.838.731zm5.108-10.228c-2.189-5.479 2.555-14.612 7.299-14.612a5.48 5.48 0 004.743-3.287c1.46-4.384 3.65-1.827 5.839 6.21 2.189 8.036-.73 12.054-9.488 14.611-4.744 1.096-7.298.366-8.393-2.922zm463.799-12.785c0-.731 1.83-1.827 4.02-2.557 2.19-.731 3.65 0 3.65 1.096 0 1.095-1.46 2.557-3.65 2.557s-3.65-.366-3.65-1.096h-.37zM698.441 95.578a4.384 4.384 0 01.365-5.114c3.284-2.922 10.218 1.461 8.028 5.114a4.381 4.381 0 01-4.196 3.131 4.376 4.376 0 01-4.197-3.131zm14.597.365c0-1.461 2.554-2.557 5.473-2.557 2.92 0 4.744 1.096 3.65 2.557a7.29 7.29 0 01-5.474 2.557c-1.825 0-3.649-1.096-3.649-2.557zm-22.26-18.264c-1.095-1.462 0-1.827 2.555-1.096 4.378 1.826 5.108 3.653 1.459 3.653a5.472 5.472 0 01-4.014-2.557zm-31.747-10.594c-8.028-1.826-6.569-2.922 5.838-3.653 3.649 0 7.299 1.461 8.028 3.288 1.095 3.287-1.824 3.653-13.866 0v.365zm-4.744-9.497a6.218 6.218 0 01-1.825-3.653c0-2.557 10.218 0 12.043 2.922 1.824 2.922-7.299 3.288-10.218.73zm645.893-10.229c-4.74-9.497-4.01-13.88 1.83-17.168 5.83-3.288 6.2-2.557 5.47 10.959-.73 11.689-3.65 14.611-7.3 6.21z" fill="#F3F6F8"/></mask><g mask="url(#a)"><path fill="#F3F6F8" d="M1165 4h555v853h-555z"/></g></svg>