<svg width="28" height="28" fill="none" xmlns="http://www.w3.org/2000/svg"><path d="M14 0C6.268 0 0 6.268 0 14s6.268 14 14 14 14-6.268 14-14S21.732 0 14 0zm5.384 15.795s1.238 1.222 1.543 1.79c.009.011.013.023.016.029.124.208.153.37.092.491-.102.201-.452.3-.572.31h-2.187c-.152 0-.47-.04-.855-.305-.296-.207-.587-.547-.872-.878-.424-.493-.792-.92-1.162-.92a.444.444 0 00-.139.023c-.28.09-.638.49-.638 1.554 0 .333-.263.524-.448.524H13.16c-.341 0-2.119-.12-3.694-1.78-1.928-2.035-3.663-6.115-3.678-6.153-.11-.264.117-.406.363-.406h2.21c.294 0 .39.18.458.338.078.186.367.922.841 1.75.768 1.35 1.24 1.9 1.617 1.9a.464.464 0 00.203-.053c.493-.274.401-2.032.38-2.396 0-.069-.002-.786-.255-1.13-.18-.25-.488-.345-.675-.38a.803.803 0 01.29-.246c.339-.17.948-.194 1.553-.194h.337c.657.009.826.051 1.064.11.48.116.491.427.449 1.49-.013.302-.026.643-.026 1.045 0 .088-.005.181-.005.28-.014.541-.032 1.155.35 1.408.05.03.107.047.166.048.133 0 .533 0 1.615-1.857.333-.597.623-1.218.867-1.858.022-.038.087-.154.162-.2a.388.388 0 01.181-.042h2.597c.283 0 .477.043.514.152.064.173-.012.703-1.198 2.308l-.529.699c-1.075 1.409-1.075 1.48.067 2.55z" fill="#B0B0B0"/></svg>