<svg width="1979" height="1246" fill="none" xmlns="http://www.w3.org/2000/svg"><path d="M700.098.624c-9.65.878-13.511 1.93-16.669 4.915-2.632 2.458-6.142 3.862-9.3 3.687-2.983 0-7.545.702-10.528 1.755-2.808 1.229-8.247 2.458-11.757 2.984-3.684.527-6.667 1.931-6.667 2.985 0 1.229-1.58 5.442-3.685 9.655-5.615 11.41-13.862 14.394-13.862 4.915 0-4.564-2.632-7.197-4.387-4.389-.526.878-5.264 3.687-10.528 6.145-8.598 4.213-9.475 5.09-11.23 12.814-1.053 4.565-2.281 14.22-2.983 21.417l-1.053 13.166 7.194 5.793c3.861 3.16 8.774 6.32 11.055 7.198l3.86 1.404-4.211 2.282c-2.281 1.229-6.668 4.74-9.651 7.9-7.194 7.724-21.583 11.059-28.25 6.67l-4.563-2.808.527 9.655c.175 5.266-.702 12.288-1.93 15.448-2.281 5.617-2.281 5.793 3.685 10.708 5.79 4.74 23.161 10.357 32.286 10.357 2.983 0 6.492-2.106 9.826-5.793 5.089-5.617 5.264-5.617 1.579-8.075-1.93-1.229-3.509-3.335-3.509-4.389 0-1.579-3.159-1.931-10.528-1.404-5.615.351-12.459.351-14.74-.351-5.966-1.404-11.581-7.724-11.581-12.99 0-4.214.176-4.214 12.81-3.16 15.09 1.404 24.565 5.091 32.286 12.288 3.158 2.809 5.966 4.915 6.317 4.389.351-.351 2.983-4.74 6.141-9.48 5.791-9.304 18.073-20.714 24.566-22.645 2.105-.703 5.439-4.213 7.194-7.9 3.86-7.373 15.441-18.432 21.232-20.363 2.281-.703 8.773-4.389 14.564-8.075 5.79-3.862 12.458-6.847 14.739-6.847 4.738 0 4.562-.35 2.106 6.847-1.58 4.388-1.58 6.67.175 9.83 1.755 3.16 1.755 4.915-.175 8.953-1.93 4.038-4.913 5.793-14.74 8.953-6.668 2.106-14.388 3.862-16.845 3.862-8.071.175-9.65 4.389-5.264 13.341l3.861 7.9-3.51 4.915c-2.632 3.862-3.334 6.671-2.456 11.411 1.052 7.373 2.632 8.075 18.775 10.006 13.686 1.58 20.354 5.442 22.46 13.341 1.754 6.496 2.281 47.222.702 54.595-1.053 4.565-.527 6.32 2.281 8.778 4.386 3.686 5.088 13.692 1.053 15.272-4.212 1.58-3.51 11.762.877 12.815 4.738 1.229 4.387 3.16-1.404 10.884-15.09 19.837-16.318 27.736-9.124 57.228 8.247 33.53 8.247 33.705 17.898 38.972 4.562 2.457 8.422 5.266 8.422 6.144 0 .702 1.579 1.404 3.509 1.404 2.457 0 4.914-2.809 8.072-9.304 2.632-4.915 8.773-14.746 13.687-21.768 4.913-7.022 11.054-15.799 13.511-19.485 3.509-5.091 7.194-7.724 14.739-10.533 6.317-2.458 13.862-7.198 19.126-12.288 7.37-7.022 11.932-9.48 25.97-14.044 13.862-4.564 32.286-13.342 36.322-17.204.526-.351-1.755-2.984-4.738-5.617-6.142-5.442-7.545-10.357-2.457-8.251 7.195 2.984 8.247 2.107 8.774-7.899.175-5.267 1.579-12.113 2.983-15.273 1.403-2.984 2.632-6.32 2.632-7.373s1.93-3.16 4.386-4.74c2.457-1.58 4.387-3.686 4.387-4.739 0-1.054 1.228-3.336 2.808-4.916 5.264-5.793 6.141-23.523 1.579-34.231-2.457-5.969-2.457-6.32 2.281-8.953 4.387-2.458 4.738-3.687 5.089-14.395 0-6.671 1.579-14.921 3.509-19.486 4.562-11.235 15.792-27.385 25.618-36.864 4.563-4.389 8.247-9.304 8.247-10.709 0-2.984-4.211-5.442-14.563-8.602-6.142-1.93-7.019-1.755-13.862 3.336-8.598 6.32-12.985 7.197-10.178 2.106 1.93-3.862-.175-6.144-6.141-6.32-2.281 0-3.685-1.404-4.036-4.212-.702-4.038-.877-4.213-14.739-2.985-9.476.703-13.511.527-12.809-.702.526-.877 3.333-1.755 6.141-1.755 2.807 0 8.598-1.053 12.634-2.458 4.211-1.229 10.879-3.16 14.915-4.389 9.826-2.633 10.703-4.74 3.684-8.25-8.598-4.389-15.616-11.41-14.564-14.922.702-2.282-1.93-3.862-12.633-7.724-15.091-5.266-13.336-5.442-38.252 3.16-8.598 2.984-12.459 5.267-12.985 7.549-.351 1.755-2.457 5.09-4.738 7.197-2.281 2.106-4.211 5.09-4.211 6.67 0 2.985-4.387 3.687-6.141.878-.527-1.053-2.983-1.755-5.265-1.755-2.807 0-4.386 1.229-5.088 4.389-1.579 6.144-3.86 5.442-9.124-2.81l-4.563-7.197-9.826 1.054c-15.617 1.58-20.003-2.107-21.934-18.784-.175-1.755-3.86-5.442-8.247-8.25-4.386-2.81-8.948-5.969-10.001-7.022-5.966-4.915-18.249-6.847-36.849-5.442zm48.254 48.802c-.702 6.144-3.86 7.022-6.317 1.58-2.105-4.74-1.228-6.32 3.51-6.32 2.632 0 3.334 1.053 2.807 4.74zm612.908-19.135c-1.75 4.213-1.4 6.144 3.16 15.097l5.27 10.358 12.81 3.335c7.02 1.755 17.89 3.686 24.04 4.037 7.19.527 12.28 1.756 14.38 3.687 2.64 2.458 4.22 2.633 7.37 1.229 2.11-1.053 5.44-2.458 7.37-3.16 2.99-1.053 2.28-1.755-4.38-4.74-4.21-1.755-10.53-3.51-14.04-3.862-8.95-.878-12.11-2.633-15.09-8.25-1.58-3.336-3.86-5.091-6.49-5.091-4.74 0-14.39-5.793-21.24-12.464-6.31-6.495-10.52-6.495-13.16-.176zM553.757 50.303c-.702 7.9.878 15.097 3.861 18.081 3.334 3.336 3.334 3.336 3.334-5.617 0-5.969-.878-10.006-2.808-11.762-3.334-3.335-4.211-3.51-4.387-.702zm1075.093 1.229c-.7 1.053-3.5 1.931-6.31 1.931-7.37 0-8.78 5.969-2.63 11.586 2.45 2.282 5.61 4.213 6.84 4.213 1.4 0 2.98 1.23 3.51 2.809 1.23 3.335 7.19 1.931 12.81-3.335 2.1-1.931 5.79-4.389 7.89-5.442 2.46-1.23 4.21-3.862 4.57-6.847.52-4.564.17-4.74-7.2-4.74-4.39 0-10.18-.526-13.16-1.053-2.98-.702-5.61-.175-6.32.878zm42.82.176c0 .878 1.93 1.755 4.39 1.755 2.45 0 4.38-.877 4.38-1.755 0-1.053-1.93-1.756-4.38-1.756-2.46 0-4.39.703-4.39 1.756zM467.076 63.82c-9.826 2.458-22.987 10.358-25.092 15.098-2.983 6.495-2.983 6.495 5.966 5.09 7.72-1.053 8.071-1.053 6.141 2.458-2.983 5.618-2.281 10.533 1.755 11.762 3.158 1.053 3.509 2.282 2.983 11.41-.176 5.618 0 10.709.526 11.235.527.527 3.685.176 7.019-.877 3.334-1.054 12.458-2.107 20.179-2.283 8.598-.175 15.441-1.228 17.02-2.457 3.159-2.633 2.106-7.724-2.281-11.762-2.983-2.633-3.509-2.633-7.896.176-4.211 2.808-5.089 2.808-10.528.175-3.509-1.755-5.791-3.862-5.264-5.09.526-1.23-.702-6.671-2.632-11.938-4.387-11.937-4.387-14.394 0-18.432 6.492-5.793 3.86-7.373-7.896-4.564zm746.794 2.985c0 1.93.53 2.457 1.05 1.053.53-1.229.35-2.809-.17-3.336-.53-.702-1.05.352-.88 2.283zM1437.76 94.5c-1.05 2.78-.87 6.081.17 9.555 1.56 4.344 1.22 6.429-2.26 13.378-3.82 7.124-5.56 8.514-14.07 11.641-5.56 1.911-9.9 4.517-9.9 5.56 0 1.216-3.3 5.733-7.3 9.903-4.16 4.343-9.2 10.077-11.29 13.031l-3.99 5.212 4.34 3.127c7.64 5.734 4.69 11.814-8.34 17.2-3.65 1.564-6.95 3.823-7.64 5.213-1.39 3.822 4.17 14.246 8.16 15.289 1.91.521 3.48 2.258 3.48 3.822 0 2.259-.87 2.606-2.96 1.738-6.6-2.954-14.41-3.128-14.41-.522 0 1.39-2.09 4.865-4.52 7.471-3.82 4.17-5.04 4.517-7.64 2.954-2.44-1.564-3.65-1.39-5.39.695-1.74 2.085-1.74 3.475.52 7.297 1.57 2.606 3.3 7.644 4 11.293.87 4.517 3.3 8.166 8.34 12.509 3.82 3.301 7.81 6.081 8.51 6.081 1.91 0-.18 20.328-2.26 24.671-2.95 5.386-6.25 1.564-7.12-7.818-.52-6.602-2.26-11.119-6.26-16.679-3.12-4.17-5.55-9.208-5.55-11.119 0-2.085-1.39-5.213-3.31-7.124-1.73-2.085-5.73-9.903-8.68-17.548-5.39-13.725-10.94-21.717-14.94-21.717-1.39 0-2.43 6.081-3.13 18.243-.87 16.852-.69 18.764 2.96 25.366 2.25 3.822 6.94 8.86 10.42 11.293 15.11 10.251-1.22 18.069-17.89 8.339-4.35-2.258-8.86-3.822-10.08-3.474-1.39.521-6.25-.869-10.94-3.302-11.81-5.907-12.51-5.385-3.82 2.607 8.86 7.992 9.2 12.856 1.21 13.378-2.95.173-9.9 1.216-15.63 2.258-5.73 1.043-12.34 1.564-14.77 1.043-5.21-1.043-20.32 7.644-26.05 14.941-5.22 6.776-11.12 6.429-13.21-.695-1.04-3.127-2.95-5.907-4.51-6.254-2.26-.521-3.13 1.563-4 10.772-.69 6.254-2.08 11.467-2.95 11.467-.87 0-1.22-1.39-.7-3.128.7-2.258-1.73-4.517-9.9-9.382-14.42-8.513-33.87-17.026-38.56-17.026-6.25 0-21.02-7.645-26.58-13.552-4.86-5.212-6.08-5.56-16.68-5.56-14.76 0-29.35 5.907-46.38 18.764-9.2 6.95-11.29 10.077-8.51 13.378 1.57 1.738.52 5.212-4.17 15.116-3.3 6.949-6.42 15.115-7.12 18.242-1.22 5.908-18.41 25.019-30.75 34.227-6.25 4.691-6.6 5.386-6.6 14.768 0 11.467 4.35 26.061 8.17 27.451 1.56.522 4.86-.173 7.47-1.911 2.78-1.563 7.64-2.78 11.11-2.78 5.39 0 6.95 1.043 11.47 7.298 6.43 8.687 6.43 12.161.69 19.806-4.51 5.907-11.46 7.992-13.72 4.17-2.78-4.518-4.69-1.39-3.65 5.907 1.05 6.602.7 8.166-2.6 11.293-4 3.822-12.51 6.255-15.46 4.517-.87-.521-4.52 3.301-7.82 8.687-3.47 5.213-7.12 9.556-8.34 9.556-1.21 0-2.95 1.564-3.82 3.649-1.91 3.822-4.343 5.386-20.324 12.856-5.385 2.607-10.249 5.039-10.77 5.56-.521.521 3.127 4.691 7.99 9.382 8.86 8.166 8.86 8.34 7.644 16.679-1.737 12.51-3.474 13.552-23.451 13.552-10.597 0-17.893.695-19.456 2.085-1.911 1.564-2.432 5.907-2.258 17.374.347 15.637 2.953 24.845 6.948 24.845 3.301 0 7.644 7.123 7.644 12.683 0 7.818-6.428 18.416-13.029 21.544-4.864 2.258-6.253 4.17-6.948 9.034-2.432 15.29-4.343 19.112-12.507 24.845-16.329 11.815-24.841 20.849-30.226 32.49-3.996 8.513-5.038 12.857-4.169 16.679 2.779 12.857 2.779 25.54 0 34.227-3.822 11.64-1.564 17.721 10.596 29.536 5.211 5.038 10.423 11.988 11.639 15.463 1.563 4.864 5.732 9.034 16.329 17.026 7.643 5.734 15.286 10.598 17.023 10.598 1.564 0 6.775-1.216 11.639-2.953 7.47-2.433 10.075-2.433 17.197-.695 7.644 2.085 9.033 1.911 14.245-1.216 15.634-9.209 29.704-8.861 38.914.868 4.86 5.213 6.42 5.734 15.11 5.734 7.82 0 10.08.695 12.16 3.822 3.47 4.865 3.47 11.988.17 22.934-1.39 4.691-2.6 9.556-2.6 10.772 0 1.39 3.99 6.776 8.86 12.162 10.59 11.814 14.24 19.285 18.06 38.918 3.3 15.984 3.3 15.984-5.56 32.142-3.99 7.297-5.21 25.713-1.91 30.752 4.69 7.123 13.03 31.62 15.12 43.609 1.91 11.468 3.82 16.328 8.33 22.238 4 4.87 9.21 22.76 9.21 31.1 0 6.95.7 8.69 4.52 11.29 3.99 2.61 5.04 2.61 12.33.18 4.52-1.57 11.29-2.78 15.29-2.78 7.12 0 26.75-6.61 31.61-10.6 5.74-4.87 25.02-31.62 28.49-39.79 2.26-5.036 6.6-11.117 10.6-14.418 6.95-5.734 6.95-5.734 6.77-18.243 0-12.162.18-12.857 6.43-19.806 3.47-3.997 10.42-9.73 15.46-12.857 13.38-8.687 15.81-13.205 16.5-29.71.35-11.467-.17-14.768-2.6-17.374-2.61-3.127-4.35-9.208-7.47-25.714-.7-4.169.52-7.123 5.38-13.899 10.43-14.42 28.49-33.706 38.91-41.35 5.39-3.822 10.77-8.34 11.82-9.73 6.42-7.992 19.45-33.358 20.49-39.786l1.22-7.471-9.38 1.39c-16.85 2.432-26.06 1.737-32.14-2.606-3.12-2.259-5.73-5.039-5.73-6.255 0-1.216 3.65-3.649 8.34-5.212 4.52-1.738 13.72-5.212 20.32-7.992 6.78-2.78 13.9-5.386 15.98-6.081 1.92-.521 7.13-3.649 11.3-6.95 3.99-3.301 8.86-6.081 10.77-6.081 7.81 0 28.83-26.408 28.83-36.138 0-4.17-3.3-7.297-7.81-7.297-5.91 0-10.95-4.691-11.64-10.946l-.52-5.559-6.61 6.428c-6.77 6.776-12.33 8.166-18.93 4.691-5.73-3.127-25.71-24.324-26.75-28.493-1.91-7.819-.18-13.9 4.34-14.421 3.13-.521 6.25 1.39 12.33 7.819 14.25 14.42 17.9 16.505 27.28 15.115 7.47-1.042 8.34-.869 11.98 3.822 3.3 4.17 5.74 5.039 15.81 6.081 6.43.869 19.98 1.39 29.71 1.39l18.06.174 8.86 9.382c5.04 5.038 10.77 11.814 13.03 14.768 3.3 4.343 5.21 5.386 10.77 5.386 7.82 0 9.03 1.563 11.99 15.115 1.91 9.556 14.76 38.571 20.67 46.91 1.91 2.78 4.34 7.819 5.38 11.293 2.96 9.035 5.91 10.946 12.34 8.34 2.78-1.216 5.21-3.301 5.21-4.517 0-1.39 1.21-2.433 2.78-2.433 2.6 0 2.78-1.911 1.56-17.548l-1.22-17.374 8.52-8.165c19.63-19.112 35.95-33.706 40.82-36.139 2.78-1.389 9.38-2.779 14.76-2.953 7.99-.348 9.9.174 11.64 3.127 1.04 1.911 2.61 3.996 3.65 4.691.87.695 3.3 4.344 5.21 7.992 4.87 9.556 11.64 21.892 12.33 22.587.18.347 3.31-.174 6.78-1.39 4.69-1.564 6.77-1.564 8.69 0 3.47 2.953 9.38 21.717 10.77 34.748l1.21 11.293 1.22-9.382c.69-5.733 2.6-10.598 4.69-12.857l3.65-3.475 8.68 7.297c4.86 3.996 11.29 10.599 14.42 14.595 3.13 3.996 6.43 7.818 7.29 8.513 1.05.695 4.52-1.737 8-5.212 3.47-3.475 8.33-8.166 10.94-10.251 9.21-7.297 4.69-25.714-9.9-39.96-11.47-11.12-12.51-16.332-4.87-24.498 10.08-10.772 21.02-8.339 18.59 4.17-.52 2.954-.35 5.733.35 6.428 2.26 2.433 7.47-4.517 7.47-10.25 0-5.039 1.04-6.255 9.2-10.946 4.87-2.78 11.47-5.733 14.25-6.255 13.2-3.127 25.19-14.768 27.79-26.929.7-3.302 3.13-10.772 5.56-16.332 3.65-8.861 4-10.598 1.74-12.162-1.22-1.042-2.95-5.56-3.65-9.903-.69-4.517-2.6-9.382-4.52-11.12-1.73-1.563-3.99-5.038-5.21-7.644-1.04-2.78-3.82-5.734-6.25-6.776-6.43-3.127-5.56-10.946 1.91-18.417 3.3-3.474 6.08-6.602 6.08-7.297 0-.695-3.47-.695-7.64-.347-7.82.869-10.6-.695-15.64-8.687-1.56-2.78 14.07-26.409 17.72-26.409 2.09 0 2.43 1.738 1.74 8.687-.52 4.691-.35 8.687.35 8.687.69 0 3.3-1.563 5.73-3.474 2.43-1.912 5.38-3.475 6.43-3.475 2.43 0 19.45 16.679 22.06 21.717 1.04 1.911 2.26 6.429 2.95 9.904 1.39 7.818 2.43 8.513 9.03 6.775 4.69-1.216 5.04-1.737 4.35-8.86-.35-5.386-2.61-10.772-7.47-17.896-5.56-8.165-6.6-11.119-5.74-15.115.7-2.954 1.91-5.56 2.78-6.081.87-.695 1.57-3.996 1.57-7.645 0-3.996 1.56-8.86 3.99-12.509 3.48-5.212 5.04-5.907 12.16-6.428 7.99-.522 8.17-.695 12.34-9.556 5.38-11.988 9.72-26.582 11.46-38.918 1.22-8.861.87-10.946-2.61-17.2l-4.16-6.95 4.51-9.034c5.21-10.772 10.08-12.162 11.81-3.475.7 3.127 2.26 9.034 3.83 13.03 2.6 7.124 2.6 7.124 6.08 3.649 3.12-3.128 3.12-3.649.52-7.124-1.39-2.084-4.52-6.254-6.78-9.382-2.26-3.127-5.21-9.208-6.43-13.551-2.95-10.077-8.16-14.942-16.67-15.637-16.16-1.39-22.93-3.127-26.75-7.123-2.09-2.259-5.91-4.17-8.17-4.17-3.99 0-4.17-.348-3.3-7.471.7-3.996 2.61-11.988 4.34-17.722 1.92-5.733 4.35-14.941 5.74-20.675 2.6-11.814 5.9-14.594 24.14-20.154 6.08-2.085 12.51-4.864 14.25-6.254 2.6-2.433 4.34-2.606 14.42-.522 13.02 2.607 15.63 1.217 13.72-7.47-1.04-5.213 2.26-23.455 4.86-26.93.87-1.216 4.52-2.954 7.82-4.17 5.73-1.911 6.43-1.737 9.38 2.085 2.78 3.475 3.47 3.822 5.04 1.564.87-1.39 1.73-3.475 1.73-4.691 0-1.043 1.74-3.301 3.83-4.691 3.47-2.433 3.47-3.128 1.39-7.124-1.22-2.432-1.91-4.865-1.22-5.386 1.39-1.39 8.16 9.903 7.12 11.815-.52.868-.17 2.606.87 3.822 1.39 1.737 1.56 5.56.35 13.378-.87 6.081-2.09 16.505-2.78 22.934-.7 6.428-2.61 17.026-4.52 23.281-2.95 10.772-3.12 11.988-.34 20.154 2.95 9.208 12.5 28.32 18.23 36.312 1.74 2.606 4.87 8.339 6.95 12.857 3.48 8.165 3.65 8.165 5.74 3.996 1.21-2.259 2.77-10.772 3.47-18.938.69-7.992 2.26-16.853 3.65-19.285 2.08-4.17 1.91-5.734-1.39-13.726-3.3-7.992-3.48-9.208-1.04-11.641 2.43-2.432 2.25-3.474-1.57-11.119-2.43-4.691-5.56-8.513-6.77-8.513-3.65 0-7.12-6.95-8.34-16.332-.87-6.776-.35-9.729 2.78-15.115 2.08-3.649 5.21-7.297 7.12-7.819 1.91-.521 5.21-3.127 7.3-5.559 3.99-4.518 3.99-4.691 10.25-1.738 3.3 1.738 6.42 2.433 6.77 1.738.52-.695 1.39-5.734 2.09-11.293 1.91-15.985 6.77-25.019 16.67-31.1 7.47-4.691 11.29-10.077 6.95-10.077-2.08 0-18.24-15.637-21.54-20.849-2.61-3.996-2.61-5.212-.17-12.162 1.73-4.691 2.25-10.424 1.73-14.246-1.39-7.993 1.74-10.077 14.59-10.077 4.87 0 10.43-.869 12.16-1.738 3.31-1.737 3.31-1.911 0-7.471-1.91-2.953-3.47-7.471-3.47-9.729 0-2.259-.87-7.124-1.91-10.598-1.91-6.081-2.61-6.776-9.21-7.471-4.34-.521-7.64 0-8.68 1.39-1.22 1.563-4.69 1.39-15.64-1.043-7.81-1.737-19.97-3.475-27.1-3.822-7.12-.521-16.85-1.911-21.36-2.954-6.78-1.737-11.12-1.737-20.85-.173-19.8 3.474-19.11 2.953-15.63 8.86 2.43 4.17 2.6 5.908.87 9.556-1.74 3.649-2.78 4.17-6.78 3.301-2.78-.695-6.25-2.432-7.99-3.822-2.78-2.432-3.3-2.259-6.95 1.042-2.26 2.085-7.81 4.518-12.68 5.386-4.69.869-10.77 2.433-13.37 3.475-2.78 1.043-7.47 1.911-10.77 1.911-4.69 0-6.43-1.042-9.38-6.081-2.44-4.343-4.69-6.081-7.82-6.081-2.43 0-4.69-.695-5.39-1.563-1.21-2.085-8.86 0-16.5 4.865-7.12 4.343-10.77 4.517-17.02 1.216-2.61-1.39-6.78-2.954-9.56-3.649-2.6-.521-6.25-2.432-7.99-4.17-5.03-5.038-8.16-5.386-30.4-3.127-20.67 2.085-20.84 2.259-22.06 7.123-.87 2.78-.52 6.603.7 9.209 1.91 4.169 1.39 5.038-6.43 12.162-7.3 6.428-9.55 7.644-14.77 7.123-5.9-.521-6.08-.348-6.08 5.56-.17 5.386-.86 6.08-4.86 6.602-3.65.521-6.77-1.39-13.72-7.819-5.04-4.517-10.08-10.945-11.47-14.073-3.47-8.513-13.37-11.466-30.4-9.208-.87.174-1.39 2.259-1.39 4.691 0 8.513-2.78 11.12-11.98 11.12-5.74 0-9.73-1.043-12.86-3.475l-4.51-3.649-12.86 4.517c-10.25 3.475-13.9 3.996-17.54 2.607-7.3-2.78-9.73-2.085-9.73 2.432 0 4.343-4.52 9.382-6.43 7.297-.69-.695-.17-6.428 1.04-12.857 4.35-21.891 4.35-25.713.18-33.011-2.78-4.864-6.43-7.992-12.16-10.771-7.65-3.649-8.51-3.649-13.55-1.043-2.96 1.564-6.6 2.78-8.17 2.78-3.3 0-19.28-7.992-20.84-10.424-2.26-3.475-9.56-1.912-11.29 2.606zm60.62 125.788c2.78 1.737 1.04 5.386-2.43 5.386-2.43 0-4.69-4.17-3.13-5.907 1.39-1.39 2.61-1.217 5.56.521zm39.09 36.659c5.38 1.911 5.73 5.212 1.04 9.556-3.13 2.78-4.34 2.954-10.42 1.042-3.82-1.042-6.95-2.606-6.95-3.301 0-.868 9.55-8.166 11.64-8.86.17-.174 2.26.521 4.69 1.563zm-60.8 29.71c-.52 1.042-.18 2.78.87 3.996 2.78 3.301-10.08 20.849-13.21 17.721-1.91-1.737 3.48-21.891 6.08-23.455 3.31-1.911 7.65-.521 6.26 1.738zm-276.9 28.841c0 1.737.52 5.038 1.22 7.297.87 3.475.52 3.996-1.91 3.127-1.74-.695-6.08-1.737-9.9-2.258-7.65-1.217-8.86 1.042-3.83 6.602 4.17 4.691 1.74 5.559-3.47 1.216-2.61-1.911-4.69-5.039-4.69-6.95 0-1.737-.69-3.301-1.74-3.301-2.95 0-1.91-6.602 1.39-7.471 1.57-.521 7.47-.868 13.03-1.042 8.34-.174 9.9.347 9.9 2.78zm288.36 1.911c0 .869-2.26 3.475-4.86 6.081-4.86 4.691-5.04 4.691-7.99 1.39-4.87-5.212-2.43-8.861 5.9-8.861 3.83 0 6.95.695 6.95 1.39zm-15.63 14.942c0 3.474-8.17 10.25-11.12 9.208-3.82-1.564-3.47-6.429.87-10.946 2.95-3.127 4.52-3.648 6.95-2.258 1.91.868 3.3 2.779 3.3 3.996zm-359.58 2.606c0 4.343-3.65 10.598-6.26 10.598-3.12 0-2.95 4.865.7 22.239 2.6 11.64 2.95 11.814 25.53 9.903l12.16-1.042-4.86 4.343c-2.61 2.432-6.08 4.517-7.64 4.517-4.35 0-18.07 7.471-17.38 9.382.35 1.043 2.96 2.259 5.74 2.78 4.17.695 5.04 1.738 5.04 6.081 0 4.691-.53 5.212-5.39 5.039-4.34-.174-5.91.695-7.47 3.996-1.04 2.258-1.56 5.038-1.04 5.907 2.95 4.691-8.51 13.725-17.37 13.725-2.43 0-8.34 1.911-13.03 4.344-4.69 2.432-9.38 4.343-10.42 4.343-1.05 0-2.61-1.911-3.48-4.343-.87-2.433-2.43-4.344-3.47-4.344-4 0-1.22-3.648 8.51-11.293 9.38-7.471 10.25-8.513 11.12-16.679.69-5.733 2.6-10.598 5.56-13.899 5.38-6.602 5.38-7.645 0-14.073-3.3-3.996-4.35-7.124-4.35-13.899 0-8.34.35-9.035 9.73-17.722 11.12-10.251 18.07-13.899 18.07-9.903zm308.33 10.598c.53.869-.17 1.737-1.73 1.737-1.57 0-2.26-.868-1.74-1.737.52-1.042 1.39-1.737 1.74-1.737.34 0 1.21.695 1.73 1.737zm278.81 26.061c2.09 1.39 1.04 3.127-5.73 9.903-4.52 4.691-8.17 9.382-8.17 10.598 0 1.043 1.91 3.302 4.35 4.865 5.21 3.475 5.56 5.907.87 5.907-4.69 0-23.63-17.895-21.89-20.675.87-1.39 3.47-1.911 6.42-1.563 4 .695 5.04.173 5.04-2.259 0-3.996 4.35-6.255 15.64-8.34.52 0 2.08.695 3.47 1.564zm-102.32 9.903c-.86 1.738-4.34 5.734-7.64 9.035-5.56 5.212-6.77 5.56-13.2 4.517-4-.695-7.12-1.737-7.12-2.606 0-1.042 26.4-13.552 29.18-13.899.17 0-.35 1.39-1.22 2.953zm-182.91 6.429c1.73 3.822 1.21 5.038-2.96 9.555-4.86 5.213-11.11 6.95-13.02 3.997-1.22-1.912 9.72-17.722 12.16-17.722 1.04 0 2.77 1.911 3.82 4.17zm157.73 9.903c6.95 1.737 7.64 2.432 5.38 4.517-2.08 2.085-3.82 2.085-10.07.521-11.47-2.953-12.34-3.301-11.12-5.212 1.39-2.258 6.25-2.258 15.81.174zm-24.15 10.424c3.65 1.912 8.17 5.039 10.08 6.95 3.12 2.954 2.08 2.954-9.56-1.216-14.94-5.212-15.63-5.56-12.16-7.645 3.65-2.258 4.34-2.258 11.64 1.911zM1390.68 435.9c3.3 4.517 4.34 5.039 7.3 3.301 5.73-2.953 5.73-.521.17 3.475-6.6 4.691-8.16 4.517-13.55-.695-3.47-3.475-3.99-4.865-2.43-7.818 2.43-4.691 3.82-4.344 8.51 1.737zm68.27 6.081c2.43 5.212 4.86 5.56 6.08.869 2.78-10.425 7.12 4.517 4.69 15.984-1.04 5.038-2.78 7.471-5.39 8.513-3.3 1.216-3.99.869-3.99-2.085 0-1.911-1.39-3.822-2.95-4.517-1.74-.521-4.87-2.606-7.13-4.691-3.3-2.954-4.51-3.127-7.29-1.39-1.91 1.043-4.52 1.564-6.08 1.043-2.43-1.043-1.91-2.085 2.6-6.776 3.13-3.301 5.04-6.602 4.52-7.471-1.04-1.738 2.61-2.954 9.9-3.649 1.74 0 3.82 1.738 5.04 4.17zm35.61 1.738c4.17 2.084 6.6 2.258 9.03.868 6.6-3.475 33.88-1.564 32.66 2.433-.35 1.042-5.21 2.953-10.94 4.169-5.56 1.39-15.46 3.823-21.89 5.734-14.42 4.17-17.89 4.17-22.06 0-3.65-3.649-6.43-14.421-4.69-17.374 1.21-1.911 8.86-.174 17.89 4.17zm14.42 32.663c0 1.39-1.56 3.822-3.3 5.386-3.3 2.953-3.48 2.953-5.21-.522-2.96-5.559-2.26-7.123 3.3-7.123 3.12 0 5.21.869 5.21 2.259zm-135.84 8.687c.34 1.737-.52 2.953-2.09 2.953-1.74 0-2.78-1.563-2.78-3.648 0-4.17 4-3.649 4.87.695zm47.77.347c13.55-4.17 15.28 1.564 2.6 8.166-5.21 2.78-9.9 4.865-10.59 4.865-1.91 0-1.39-7.819.86-13.378 1.57-3.996 2.09-4.344 2.61-1.738.7 2.433 1.74 2.954 4.52 2.085zm-112.05 8.166c3.82 3.822 2.44 9.903-2.95 12.509-7.3 3.823-7.64 6.95-1.56 14.421 6.08 7.644 10.77 16.679 12.5 23.802.7 2.954 4 9.904 7.3 15.463 5.73 9.73 5.91 10.425 3.13 13.552-6.08 6.776-27.1 2.78-33.01-6.255-2.43-3.822-2.6-5.733-1.04-12.683 1.74-7.818 1.74-8.166-5.73-17.721-14.94-19.285-16.51-26.756-6.95-35.965 3.3-3.127 7.82-6.602 9.9-7.47 5.73-2.259 15.98-2.085 18.41.347zm181.53 2.085c.52 1.39.52 2.954 0 3.475-2.78 2.78-10.42-.869-8.51-3.996 1.74-2.78 7.47-2.433 8.51.521zm-303.12 5.56c2.25 1.563 4.69 4.517 5.38 6.602 1.22 3.301 2.61 3.648 12.51 3.127 9.9-.347 12.33.174 21.54 5.386 7.12 3.996 11.29 7.818 13.37 11.814 3.3 6.603 4 13.031 1.39 14.595-3.47 2.258-20.49 1.216-29.88-1.738-9.2-2.953-10.07-2.953-18.23-.173-12.51 4.517-16.51 5.038-24.32 2.953-5.74-1.564-7.47-3.127-9.04-7.471-3.82-10.598 10.6-37.875 19.98-37.875 1.91 0 5.21 1.216 7.3 2.78zm27.96-.522c2.61 3.302.7 4.691-7.12 4.691-6.95 0-8.51-2.084-3.47-5.038 4.17-2.432 8.33-2.259 10.59.347zm-127.5 21.718c16.15 10.598 21.71 15.81 21.71 20.328 0 2.085 1.74 6.428 4 9.729 2.08 3.301 6.08 9.556 8.68 14.073 5.56 9.382 8.17 10.251 11.12 3.822 1.74-3.648 1.74-5.733-.17-10.25-2.26-5.386-2.26-6.081 1.39-9.382 2.08-1.911 6.25-3.996 9.03-4.691 4.69-.869 5.56-.348 7.47 4.343 1.22 2.954 3.3 6.255 4.69 7.297 1.39 1.043 2.43 4.17 2.43 6.95 0 2.606.87 5.386 1.91 5.907.87.695 2.43 2.954 3.3 5.212 1.57 3.823 1.74 3.996 12.16 1.738 7.3-1.564 12.68-1.738 16.33-.695 2.95.869 7.47 1.216 10.08.521 7.29-1.564 11.46.695 13.55 6.95 1.56 4.864 1.21 7.471-1.74 15.463-1.91 5.212-5.21 11.64-7.12 14.073-3.48 4.343-3.48 4.343-28.14 3.996-22.07-.522-25.89-1.043-36.14-5.213-16.85-6.949-20.15-6.428-24.66 4.344-1.39 3.475-4.17 6.776-6.08 7.471-3.82 1.042-19.28-5.734-25.54-11.293-1.91-1.738-6.6-3.649-10.42-4.344-3.82-.521-10.42-2.606-14.59-4.517-6.6-2.78-7.3-3.822-6.26-7.123 1.22-4.344 4.17-19.459 3.65-19.981 0-.173-5.21-.347-11.46-.521-19.29-.521-43.26 3.127-53.507 8.166-11.465 5.733-24.667 7.297-27.967 3.475-3.127-3.996-.695-9.73 4.69-10.946 13.202-2.78 21.193-9.382 21.193-17.374 0-4.691 19.281-27.625 26.401-31.273 2.61-1.39 6.26-2.433 8.34-2.433 1.91 0 6.43-1.563 9.9-3.474 9.04-4.865 11.81-4.344 19.46 2.953 3.65 3.649 11.81 10.598 17.89 15.463 10.25 8.166 11.64 8.687 15.29 6.776l3.99-2.085-5.04-3.301c-8.16-5.386-23.27-21.544-23.27-24.845 0-7.818 6.6-6.428 23.45 4.691zM1219.75 646.3c2.43 3.127 5.91 8.34 7.82 11.815 1.73 3.474 4.69 7.123 6.6 8.339 1.91 1.216 5.21 6.602 7.29 12.162 2.09 5.56 6.26 12.857 9.56 16.158 9.55 10.077 21.02 35.095 18.76 41.003-1.39 3.822-4.34 2.779-12.86-5.039-10.42-9.556-23.8-29.015-27.96-41.176-1.74-5.213-4.69-10.772-6.61-12.162-4.34-3.475-15.63-25.193-15.63-30.231 0-8.166 6.43-8.513 13.03-.869zm-153.62-542.806c-3.16 1.755-10.53 5.091-16.5 7.022l-10.53 3.686-.52 8.075c-.53 7.198.17 8.778 5.61 14.22 3.34 3.335 7.72 9.304 9.83 13.341 1.93 4.038 5.26 8.953 7.19 10.884 3.34 3.335 3.34 3.335 7.72-6.495 2.46-5.442 4.39-10.533 4.39-11.411 0-3.159 6.49-1.404 10.53 2.809 4.74 4.915 8.77 5.793 8.77 1.58 0-1.58-2.63-7.548-5.96-13.517-6.5-11.762-6.5-15.273-.18-15.273 7.02 0 17.9-17.028 11.41-17.73-12.11-1.58-26.5-.351-31.76 2.809zm15.96 11.235c0 2.106-3.51 4.389-4.73 3.16-1.23-1.229 1.05-4.74 3.15-4.74.88 0 1.58.702 1.58 1.58zm-547.81-10.884c-5.439.878-6.492 3.16-2.281 4.74 1.404.526 2.632 2.457 2.632 4.213 0 5.969 3.861 14.395 7.37 16.326 5.615 2.984 5.79.351.877-8.778-5.439-9.83-5.79-12.463-2.105-12.463 1.403 0 2.632-1.229 2.632-2.634 0-1.404-1.053-2.457-2.106-2.457-1.228.175-4.387.702-7.019 1.053z" fill="#F3F6F8"/><path d="M176.006 106.495c-2.06.936-6.367 1.123-9.737.749-3.745-.749-7.49.187-10.111 2.058-2.434 1.684-6.366 2.994-8.987 2.994-2.435 0-7.303 2.058-10.673 4.678-8.8 6.736-21.158 12.162-27.899 12.162-8.8 0-11.234 5.426-10.485 24.512.561 15.905.561 16.092-5.43 20.957-6.74 5.801-8.613 6.175-9.924 2.433-.749-1.872-3.932-2.433-11.047-2.059-14.418.562-17.039 2.059-15.728 8.982.749 3.181 2.247 6.362 3.557 7.297 1.685 1.123 1.685 1.872-.187 3.743-2.996 2.994-2.808 7.11.375 7.11 1.498 0 5.804 1.684 9.361 3.93 5.992 3.555 6.367 4.116 4.494 9.355-1.498 4.117-2.808 5.239-5.242 4.491-1.873-.561-3.933-.187-4.681.936-.562.935-3.745 1.871-6.928 1.871-8.239 0-27.525 20.582-27.712 29.377 0 3.742-1.498 7.484-4.12 9.917l-4.118 3.742 8.238 7.485c7.49 6.923 7.864 7.859 6.928 14.969-.936 7.298-.749 7.485 4.494 7.485 2.996 0 5.991 1.122 6.553 2.619.562 1.497 2.809 2.994 4.868 3.556 3.745 1.122 3.558 1.309-1.872 8.42-8.8 11.04-20.97 20.208-36.325 27.319L0 343.945l7.49.187c4.119 0 9.174-1.123 11.047-2.62 2.06-1.497 5.055-2.807 6.74-2.807 2.996 0 11.422-4.865 29.584-17.027 4.307-2.994 9.55-5.427 11.422-5.427 5.43 0 14.792-5.987 17.039-10.852 1.685-3.93 2.808-4.304 9.924-3.181 6.553.935 11.047 0 23.404-4.678 16.665-6.362 24.903-6.362 29.023.187 1.123 1.871 3.932 3.555 6.179 3.555 6.927 0 20.034 13.473 25.839 26.383 2.808 6.55 6.366 14.221 7.677 16.841 1.31 2.994 2.059 8.42 1.497 13.285-.748 5.988-.187 8.795 2.06 10.666 1.685 1.309 2.996 4.865 2.996 7.859 0 3.555.936 5.426 2.809 5.426 5.055 0 7.115 6.923 3.557 12.911-3.183 5.426-3.183 5.613 2.434 14.595 5.992 9.356 6.554 16.84 2.06 26.009-2.247 4.865.374 10.853 5.992 13.846 3.37 1.684 3.744 3.93 3.744 18.338 0 21.331-2.434 35.739-8.425 48.088-2.622 5.614-4.681 11.602-4.681 13.66s-1.124 7.11-2.622 11.227c-1.498 4.116-2.247 9.543-1.872 11.975 2.808 13.285 5.43 21.893 8.613 28.255 1.872 3.929 2.996 7.858 2.247 8.981-1.873 3.181 2.808 11.975 8.613 15.344 7.489 4.49 12.17 11.788 16.851 25.821 2.247 6.55 5.805 14.221 8.052 17.028l4.119 5.239-.562-7.672c-.749-6.549-.374-7.484 2.622-6.923 2.995.562 17.787 18.899 20.783 25.822.562 1.497 2.809 5.052 4.681 7.859 1.873 2.62 3.371 6.175 3.371 7.859 0 1.684.748 2.994 1.685 2.994.936 0 6.179 6.549 11.609 14.408 8.425 12.349 9.923 16.091 10.298 23.763.374 7.298 1.31 10.104 4.868 12.724 7.864 6.175 34.827 20.209 38.571 20.209 2.247 0 4.307.748 4.869 1.684.561.748 5.804 2.058 11.609 2.619 5.617.562 13.855 2.994 18.162 5.239 18.537 9.73 29.584 14.783 32.018 14.783 3.932 0 13.856 8.981 19.098 17.027 7.49 12.163 26.214 22.267 31.457 17.215.561-.749-3.183-5.801-8.613-11.227l-9.737-9.917 2.621-8.795c1.311-5.052 2.622-11.414 2.622-14.408.187-6.175-2.996-7.671-20.409-10.104-8.988-1.31-9.362-1.497-8.801-6.923.188-3.181.562-9.356.937-14.034.374-4.678 1.498-10.291 2.808-12.349 1.124-2.246 1.685-4.491.936-5.24-2.621-2.432-16.664 1.497-22.094 6.362-8.613 7.672-18.537 13.098-24.528 13.098-3.932 0-7.49-2.432-14.231-9.917-5.055-5.239-9.549-11.601-10.298-14.033-1.685-7.111 5.243-43.037 9.549-49.399 2.809-3.929 23.967-14.408 29.397-14.595 1.498 0 6.928 1.31 11.983 3.181 6.741 2.245 9.362 2.433 9.924.748.375-1.122 2.06-3.555 3.745-5.052 3.558-3.555 17.226-2.432 24.154 2.246 2.434 1.497 5.992 2.245 8.051 1.684 3.745-1.123 9.737 5.8 11.796 14.033.749 2.62 2.996 7.672 5.243 11.227 3.745 5.988 4.307 6.175 5.617 2.807.749-2.058 1.498-11.227 1.498-20.208.187-23.764 5.056-31.062 31.082-47.341 7.864-4.865 10.111-8.233 10.298-14.595 0-12.349 19.286-39.107 29.584-41.539 9.549-2.433 14.979-6.175 14.23-9.73-2.434-8.607 21.533-21.144 32.393-17.028 4.494 1.684 11.047-.187 33.89-9.543 7.303-2.993 4.869-7.11-5.991-10.291-11.984-3.555-17.039-8.233-15.354-14.782.936-3.929.374-4.678-5.617-5.613-8.426-1.685-10.298-6.175-4.307-10.666 5.992-4.678 15.167-4.491 19.473.187 3.932 4.491 7.677 4.865 9.175.936.749-2.059 3.558-2.62 9.924-2.433 4.868.187 10.86-.374 13.106-1.31 5.618-1.871 7.865 3.368 3.558 8.233-1.685 1.684-3.558 5.988-4.119 9.169-1.124 5.988-1.124 5.988 6.179 5.988 4.681 0 9.362 1.497 12.17 3.555 2.434 2.058 6.928 4.304 9.55 4.865 4.493 1.123 5.055.748 5.055-2.994 0-8.046-5.055-21.331-8.239-21.892-1.685-.375-2.995-2.059-2.995-3.743 0-5.052 3.557-15.905 5.43-17.214 2.434-1.31-2.06-14.782-5.805-17.589-1.498-1.123-7.489-7.485-13.294-14.034-8.613-9.543-10.673-13.098-10.673-18.337 0-3.555-.749-7.859-1.872-9.73-.936-1.871-2.809-9.73-3.932-17.215-2.434-16.279-4.494-19.46-7.302-11.788-3.371 8.607-9.362 13.846-16.103 13.846-8.051 0-11.047-4.303-11.234-16.091 0-8.234-.937-10.666-5.992-15.531-3.183-3.181-6.179-7.485-6.928-9.356-.749-2.807-3.745-3.742-13.107-4.865-6.553-.561-12.919-.748-13.856-.187-.936.561-2.246 6.923-2.995 14.221-1.124 11.975-1.873 13.659-7.864 18.524-6.367 5.24-6.554 5.427-3.558 11.04 4.119 7.859 3.932 9.169-2.809 22.454-4.306 8.981-6.927 11.788-10.672 12.724-9.175 1.871-9.737 2.432-9.737 8.233 0 6.362-4.119 9.169-8.426 5.613-1.497-1.309-2.808-4.116-2.808-6.549 0-5.052-5.43-10.291-10.86-10.291-3.558 0-15.915-9.169-38.197-28.067-3.745-3.181-7.864-8.795-8.988-12.35-1.123-3.555-2.808-6.362-3.744-6.362-3.558 0-3.745-7.672-.188-14.408 8.052-15.905 54.3-54.825 64.973-54.825 1.498 0 4.306 2.433 5.991 5.614 2.435 4.116 4.494 5.613 8.613 5.613 2.996 0 8.239 1.684 11.609 3.93 8.988 5.613 7.864-1.684-2.247-13.66-8.613-10.478-7.489-22.454 1.873-20.77 3.37.749 6.179-.748 11.234-6.174 3.745-3.93 6.741-8.42 6.741-10.105 0-1.496 2.059-5.8 4.494-9.355 2.246-3.556 5.43-9.73 6.927-13.66 2.06-5.8 3.371-6.923 7.865-6.923 9.362 0 15.54 4.678 18.724 14.408 2.995 8.981 2.995 8.981-1.873 14.034-6.179 6.549-4.868 7.858 5.056 5.239 4.306-1.123 8.987-1.684 10.485-1.123 3.932 1.497 3.183 9.356-1.123 13.285-2.06 1.871-4.12 5.052-4.869 7.298-2.059 6.923-6.553 10.291-17.787 13.472-6.179 1.684-11.048 4.117-11.048 5.426 0 1.123 4.307 3.181 9.737 4.491 10.111 2.246 16.477 6.362 16.477 10.666 0 4.116 4.307 11.975 6.366 11.975 1.311 0 4.307 2.433 7.115 5.614 2.622 2.993 6.179 5.613 7.864 5.613 2.06 0 2.996-1.684 2.996-5.613 0-5.988 1.498-6.924 5.43-3.368 2.06 2.058 2.247 1.496 1.124-2.246-1.311-4.491-1.124-4.491 1.498-1.123 2.621 3.556 2.808 3.556 4.868-.374 3.183-5.987 2.434-13.098-1.685-15.717-4.307-2.807-4.869-9.356-1.124-12.537 2.06-1.871 4.119-1.684 8.8.748 5.805 3.181 6.179 2.994 13.482-2.245 11.609-8.046 12.358-10.479 5.804-17.028-15.353-15.343-19.098-22.079-15.728-28.254 1.311-2.62 1.685-7.672.936-14.221-1.123-8.981-2.434-11.227-12.545-21.892-11.796-12.537-18.349-23.203-18.349-29.565 0-2.058-2.996-6.736-6.554-10.291-6.179-6.362-6.928-6.549-20.409-6.549-7.677 0-14.605-.935-15.166-1.871-1.873-2.994-9.737-2.245-13.294 1.31-1.686 1.871-4.307 3.368-5.805 3.555-4.494.748-7.864 4.678-11.796 13.285-5.055 11.227-4.119 23.39 2.434 31.435 6.179 7.859 6.179 9.918.375 21.332-7.677 15.343-23.593 19.647-20.597 5.613.936-3.742-.187-7.484-3.557-13.285-3.183-5.426-5.056-12.35-5.992-21.705-.562-7.485-2.06-14.034-2.809-14.595-.936-.562-1.123-2.994-.561-5.427.561-2.432.187-6.175-1.124-8.233-1.685-3.181-1.31-5.052 1.124-9.356 3.932-6.736 2.247-16.84-2.06-13.285-2.247 1.871-2.809 1.684-2.809-.748 0-4.304-6.927-3.743-9.362.748-1.123 2.058-3.183 3.742-4.681 3.742-3.744 0-3.557 4.491.375 11.789 5.055 9.355 7.49 20.582 5.804 26.757-.936 2.994-1.123 11.414-.374 18.899l1.123 13.285-5.617 2.994c-10.298 5.239-16.103 2.807-7.302-3.181 3.37-2.245 3.745-3.368 1.872-5.239-1.311-1.31-2.434-3.93-2.434-5.614 0-1.871-.749-3.742-1.872-4.491-2.434-1.496-9.362 3.181-9.362 6.175 0 1.497-2.809 5.427-6.366 8.982-5.243 5.239-7.865 6.362-14.043 6.362-14.98 0-27.15-10.104-22.657-18.899 2.435-4.304 6.928-4.678 11.609-.374 3.183 2.807 3.558 2.619 7.864-1.871 2.622-2.807 6.367-5.052 8.613-5.052 6.367 0 6.367-4.865.188-15.531-3.183-5.613-5.805-11.227-5.805-12.537 0-7.484 8.613-29.564 13.482-34.055 7.676-7.11 6.927-9.73-2.435-8.42-4.119.561-8.987 2.246-10.672 3.742-3.558 2.994-21.907 2.994-24.903 0-.936-.935-3.558-8.233-5.992-16.279-4.868-16.279-6.553-17.776-27.15-22.641-9.362-2.432-9.923-2.245-11.983 1.497-1.123 2.246-6.928 9.356-12.92 15.905-10.859 11.601-13.855 17.402-12.545 24.138.749 3.929 9.737 5.613 13.482 2.62 3.183-2.62 17.975-7.859 17.975-6.362 0 .748-1.311 2.806-2.996 4.491-2.809 3.18-2.809 3.742 0 8.045 1.685 2.807 2.247 5.053 1.123 5.801-1.123.561-1.872 3.181-1.872 5.614 0 3.18 1.311 4.677 5.243 5.613 6.553 1.497 13.481 5.988 13.481 8.607 0 1.31-3.932 1.684-11.235 1.123-12.545-.936-14.604.374-16.664 10.478-.936 4.865-2.247 6.175-6.553 6.549-4.307.562-6.928-1.122-14.418-8.794-5.055-5.239-10.672-9.543-12.545-9.543-1.872 0-4.494-1.123-5.804-2.432-1.124-1.123-4.494-2.246-7.303-2.246-4.493 0-5.055-.748-5.055-6.549v-6.549h-19.66c-10.86 0-21.533-.748-23.967-1.497-2.809-1.122-6.366-.748-9.736.562-4.12 1.684-6.179 1.684-9.737-.188-4.306-2.245-15.354-10.852-23.03-17.588-2.247-2.059-7.865-5.614-12.358-8.046-8.988-4.491-39.882-32.933-41.568-38.359-1.31-3.368-5.43-3.929-11.608-1.497zm394.14 79.337c0 4.491-3.558 7.859-5.805 5.613-1.498-1.496-1.498-2.993.187-5.987 2.06-4.117 5.618-3.742 5.618.374zm-182.185 24.886c-.562.562-2.247.749-3.557.188-1.498-.562-.937-1.123 1.123-1.123 2.06-.187 3.183.374 2.434.935zm28.648 11.04c1.872 2.246 1.872 3.555.374 5.052-1.31 1.31-2.247 3.93-2.247 5.801 0 2.62-.748 3.181-3.183 2.245-1.872-.748-9.923-1.871-17.787-2.619-22.656-2.059-25.278-9.356-3.371-9.543 5.617 0 11.609-.936 13.107-1.871 4.119-2.807 10.486-2.246 13.107.935zm864.991-78.941c-5.44 4.915-11.4 9.128-13.16 9.655-9.47 3.159-17.02 25.629-18.42 55.121-.88 17.906-.88 18.257 3.33 20.012 6.32 2.985 9.48-2.106 8.25-13.692-1.58-15.624 10.35-41.78 27.2-59.51 5.96-6.32 9.12-10.884 8.42-12.464-.53-1.58-1.05-3.862-1.05-5.267 0-4.388-4.22-2.633-14.57 6.145z" fill="#F3F6F8"/><path d="M536.561 166.866c-2.456 5.618-2.105 6.144 2.983 4.74 2.983-.702 3.51-1.404 1.93-3.335-1.052-1.229-1.403-3.16-.701-4.213.526-.878.351-1.756-.527-1.756-.877 0-2.456 2.107-3.685 4.564zm728.899 63.899c.52.878 1.93 1.756 2.81 1.756 1.05 0 1.22-.878.7-1.756-.53-1.053-1.93-1.755-2.81-1.755-1.05 0-1.23.702-.7 1.755zM108.242 308.006c0 4.037 2.281 4.564 5.089 1.053 1.579-1.931 1.404-2.633-.878-3.511-4.035-1.58-4.211-1.404-4.211 2.458zm765.746 2.282c-4.913 2.808-1.053 16.677 6.317 21.943 5.088 3.862 5.615 3.862 13.862 1.404 10.528-3.16 15.616-5.617 20.88-10.357 4.036-3.862 5.089-8.251 1.931-8.251-1.229 0-3.159-1.404-4.387-3.159-1.755-2.458-5.089-2.985-19.126-2.985-9.3 0-18.074.702-19.477 1.405zm90.893 90.231c-1.93 2.809-4.036 6.846-4.738 9.304-1.93 6.671-7.896 15.799-10.353 15.799-3.509 0-10.001 7.9-12.458 15.273l-2.281 6.67 6.843 1.405c10.353 2.106 15.968-1.229 17.898-10.709.877-4.739.877-8.426-.175-9.655-2.106-2.282 1.93-13.517 4.562-13.517 2.983 0 6.317 10.709 4.387 13.868-2.983 4.74-4.738 21.241-2.282 21.241 1.404 0 1.931 2.283 1.404 7.022-.351 3.862.176 7.022 1.053 7.022s6.843-2.106 12.985-4.564c9.475-3.686 12.107-4.213 15.792-2.633 4.912 2.282 7.022 1.404 4.212-2.107-1.05-1.229-1.58-3.862-1.05-5.968.7-2.282-.53-5.091-3.162-7.9-8.423-8.953-17.196-23.172-19.828-31.774-2.632-8.777-5.44-13.517-8.072-13.517-.702 0-2.807 2.107-4.737 4.74zm892.789 41.078c0 1.931.7 3.159 1.75 2.457.88-.526 1.23-2.106.53-3.511-1.23-3.686-2.28-3.335-2.28 1.054zm6.14 28.789c.17 18.432 1.4 21.768 6.14 17.555 1.75-1.58 4.03-2.458 4.91-1.931 2.63 1.58 7.37-.702 7.37-3.511 0-1.405-.7-2.458-1.75-2.458-.88 0-1.76-1.58-1.76-3.511 0-2.282-1.23-3.511-3.51-3.511-2.63 0-4.74-2.457-7.72-9.304l-4.03-9.128.35 15.799zm3.51 34.232c.52 5.266 1.4 12.113 1.93 15.097.35 2.984 0 7.724-1.06 10.357-2.45 6.495-19.3 22.47-31.76 30.018-9.82 5.969-13.16 9.831-11.05 13.342.53.878-.35 3.16-1.93 4.915-2.98 3.336-2.28 7.022 1.23 7.022.87 0 4.91-2.809 8.95-6.144 3.86-3.335 9.82-6.671 13.16-7.197 3.51-.703 8.77-2.985 12.1-5.267 3.34-2.106 9.83-5.266 14.57-6.846 8.95-2.984 11.05-6.671 6.84-10.884-1.23-1.229-2.28-9.479-2.46-20.714-.35-15.8-.87-19.135-3.86-22.47-1.93-2.107-4.38-5.442-5.61-7.373-1.58-2.809-1.76-1.58-1.05 6.144zM275.464 634.522c1.755 8.251 8.422 21.065 11.23 21.065 2.983 0 2.983-.175-2.808-12.99-5.79-12.99-10.177-17.204-8.422-8.075zm209.861 41.429c5.264 2.282 12.809 5.442 16.669 6.671 11.581 4.037 30.356 12.815 31.585 14.921.701 1.053 5.966 1.931 11.931 1.931 9.3 0 10.353-.351 8.423-2.633-1.228-1.404-3.86-2.633-5.966-2.633-3.685 0-34.216-10.358-54.922-18.608-14.037-5.442-20.003-5.267-7.72.351zM1775.2 710.358c-2.11 9.129-1.93 10.006 3.15 20.188 2.99 5.793 9.83 17.028 15.27 25.103 5.61 7.9 11.05 17.204 12.46 20.364 2.98 7.197 4.03 7.373 9.47 1.58l4.04-4.214-3.86-6.319c-1.93-3.511-3.69-8.251-3.69-10.709 0-5.441-2.8-5.441-4.21.176-.7 2.458-1.75 4.389-2.63 4.389-2.63 0-8.6-16.853-7.72-21.593.7-3.335-.35-5.617-3.33-8.601-6.15-5.618-8.95-11.586-10.18-20.715-.53-5.442-1.76-8.075-3.86-8.426-2.11-.351-3.34 1.58-4.91 8.777zM533.403 743.536c-.702.702-6.492 1.58-12.634 1.931l-11.23.527-2.983 8.777c-2.807 7.9-3.509 8.778-7.896 8.251-6.492-.702-10.177.878-8.422 3.511 2.983 4.915 7.369 20.188 7.545 26.156 0 6.32-4.562 14.922-12.985 24.401-8.071 9.129-9.826 13.517-9.475 24.928 0 6.144-.176 13.692-.702 16.852-.526 4.916.351 7.022 6.492 13.517 4.036 4.389 11.757 17.204 17.372 28.614 8.598 17.028 11.756 21.768 18.95 27.561 17.372 14.044 20.881 17.204 23.162 21.768 3.685 7.373 7.545 108.49 4.562 122.18-2.281 11.24-2.632 18.61-1.228 35.11 2.281 26.68 2.808 48.63 1.053 53.01-1.053 2.64-1.053 5.1-.176 5.62.878.53 2.106 7.02 2.457 14.22.877 12.99 1.93 15.98 12.458 38.27 3.861 8.25 6.317 11.24 9.827 11.94 2.456.7 8.598 4.21 13.511 7.9 10.001 7.72 16.845 8.6 23.162 3.51 4.913-4.21 4.913-4.74-1.229-10.01-6.317-5.26-15.967-23.87-15.967-30.54 0-2.64 2.807-10.18 6.141-16.68l6.317-11.94-6.317-5.61c-8.423-7.9-8.247-9.66 1.755-18.09 1.403-1.22 2.632-3.86 2.632-5.79 0-1.93 1.93-6.14 4.386-9.3 2.457-3.16 4.387-7.38 4.387-9.31 0-1.93 1.579-4.91 3.51-6.67 1.93-1.75 4.386-6.14 5.264-9.83 1.754-6.32 6.843-10.18 19.652-14.39 1.755-.71 3.334-3.69 4.036-7.73 2.632-16.15 2.807-16.67 8.598-18.96 7.019-2.98 14.037-9.48 17.547-16.5 1.579-2.98 6.668-11.23 11.405-18.25 8.247-12.29 11.23-18.61 13.16-27.74 2.281-11.06 17.723-25.63 31.585-30.019 12.283-3.862 13.16-4.915 17.722-19.661 2.281-7.9 4.738-18.959 5.44-24.752 1.403-12.64 4.562-19.31 17.371-36.163 8.072-10.884 9.651-14.219 9.651-20.188 0-5.091-1.053-8.25-3.861-11.059-7.369-7.373-28.075-18.081-39.129-20.364-5.966-1.404-15.968-4.739-22.109-7.548-6.142-2.809-14.389-6.144-18.249-7.373-12.458-3.862-14.915-5.091-14.915-7.373 0-1.404-1.403-5.091-3.334-8.426-1.754-3.336-3.86-8.075-4.562-10.357-2.632-8.778-10.703-13.166-32.286-17.906-6.843-1.404-11.581-4.038-16.67-8.602-4.035-3.511-8.949-7.373-11.054-8.602-2.106-1.053-4.036-4.037-4.387-6.67-.526-4.389-1.404-5.091-9.3-5.969-4.737-.527-10.528-.176-12.633.702-4.563 1.931-14.389-.351-25.97-6.144-8.422-4.213-19.477-6.671-21.407-4.74zm1108.437 22.997c0 1.58 4.03 11.411 8.77 21.768 4.92 10.357 8.78 19.837 8.78 21.066 0 5.793-9.13 1.228-24.04-11.938-4.57-4.037-8.43-6.144-10.18-5.617-4.39 1.755-2.98 5.442 3.33 9.304 9.13 5.793 23.87 27.034 23.87 34.582 0 4.214 28.6 31.599 35.79 34.232 3.51 1.229 6.32 2.984 6.32 3.687 0 .702 2.46 1.404 5.44 1.404 2.98 0 10.88 1.58 17.37 3.686 6.67 1.931 13.86 3.336 16.14 2.985l4.04-.527-4.39-2.984c-2.45-1.58-9.82-3.862-16.49-4.916-15.44-2.457-28.08-7.899-31.94-13.692-2.63-4.038-2.63-4.74.18-9.48 3.16-5.617 2.98-6.144-2.98-9.128-4.39-2.282-11.06-13.868-12.64-22.47-.52-3.16-1.4-10.884-1.93-17.028-.7-10.884-1.05-11.411-10-20.188-5.09-5.091-10.7-11.059-12.28-13.341-2.28-3.511-2.99-3.687-3.16-1.405zm110.19 20.188c-1.22 1.58-4.56 4.213-7.37 5.968-2.8 1.756-9.47 7.373-14.91 12.64-5.44 5.266-11.93 10.884-14.57 12.639-6.66 4.213-6.14 8.602 2.11 18.432 5.62 6.671 8.42 8.602 13.69 9.304 3.51.351 9.12 1.756 12.28 3.16 4.91 2.107 5.97 2.107 7.37-.175.88-1.405 1.75-4.389 1.75-6.496 0-3.335 2.99-10.883 8.95-21.943.88-1.58 1.06-5.266.53-8.075-.53-2.809.17-7.9 1.75-11.586 3.69-8.953 3.69-8.953-3.15-12.99-5.62-3.336-6.32-3.336-8.43-.878zm107.57 47.397c-2.46 4.916 1.4 8.602 19.47 18.784 17.2 9.655 21.41 14.57 18.95 21.241-1.93 4.915-.87 6.144 5.62 6.144 2.81 0 7.37 1.756 10 3.687l5.09 3.686 10-4.564 9.83-4.74 12.28 5.618c6.67 3.159 12.63 5.09 13.16 4.564.53-.527-1.58-4.74-4.74-9.129-4.91-6.846-5.44-8.601-3.68-11.586 1.75-2.808 1.75-3.335-.53-3.335-1.58 0-4.91-2.107-7.37-4.564-5.79-5.793-14.56-11.235-18.42-11.235-1.58 0-9.83-2.458-18.43-5.267-9.3-3.335-19.3-5.442-25.09-5.442-8.07-.175-14.56-1.931-23.16-6.319-.7-.351-1.93.877-2.98 2.457zm58.08 80.751c-2.29 15.975-7.9 30.37-11.58 30.37-5.09 0-17.2-7.549-20.53-12.815-2.64-4.213-3.34-8.075-2.99-15.272l.53-9.655-5.79.526c-3.16.176-8.07-.878-10.88-2.282-4.56-2.282-6.32-2.458-12.11-.527-3.68 1.405-8.95 4.916-11.58 8.076-2.46 2.984-7.02 7.197-9.83 9.304-4.56 3.159-5.96 3.335-10.35 1.579-7.54-3.159-12.63-1.053-18.77 7.549-3.69 5.442-7.02 8.075-10.88 8.777-3.34.702-5.44 2.282-5.44 3.862 0 10.709-12.81 19.486-36.32 25.279-21.76 5.266-23.34 6.144-23.34 13.166 0 7.548-2.63 14.921-7.37 19.834-3.51 3.69-3.51 4.04-.7 8.43 7.54 11.58 10.35 34.76 6.49 52.31-3.51 15.27 4.04 20.37 19.48 12.82 5.26-2.46 13.16-4.74 18.07-5.09 4.91-.36 10.88-1.94 13.69-3.69 6.66-4.39 16.84-7.9 23.51-8.08 3.16 0 9.47-.87 14.39-1.93 11.05-2.28 20.88.18 29.13 7.38 4.21 3.68 6.14 7.02 6.14 10.18 0 6.32 1.4 7.55 5.79 5.09 2.98-1.58 4.21-1.23 6.31 1.93 1.58 2.11 4.92 6.67 7.72 10.18 2.64 3.34 4.74 8.43 4.74 11.24 0 2.63.7 6.67 1.58 8.95 1.93 5.09 15.79 12.64 20.18 10.88 1.93-.7 4.91.18 8.07 2.64 6.67 4.91 8.25 4.74 14.04-1.58 2.98-3.16 6.67-5.27 9.48-5.27 5.96 0 11.58-5.79 11.75-11.94 0-2.63 2.46-8.25 5.09-12.64 2.81-4.39 6.67-10.88 8.77-14.39 1.93-3.51 4.57-7.2 5.62-7.9 4.21-2.63 11.93-15.62 11.93-20.01 0-2.29 1.58-6.67 3.33-9.66 2.46-4.04 3.34-8.95 3.34-19.66.17-13.52-.18-14.39-5.79-21.77-3.34-4.21-6.14-8.95-6.14-10.53 0-2.809-4.92-10.357-16.15-25.103-2.28-2.809-6.49-12.991-9.47-22.646-2.99-9.479-6.67-18.256-8.07-19.31-3.34-2.457-7.72-10.884-9.3-18.257-.53-2.984-1.76-5.617-2.46-5.617s-2.28 6.846-3.33 15.272zm-613.44 3.161c-2.63 3.335-8.78 8.25-13.51 10.708-9.65 4.915-12.11 8.953-12.11 20.89 0 4.389-1.58 10.708-3.51 14.57-3.16 5.969-3.33 8.075-1.76 15.273 2.29 9.83 5.44 12.815 12.29 11.761 7.37-1.053 9.65-4.564 17.54-26.683 14.74-41.078 16.67-52.664 8.95-52.664-1.75 0-5.44 2.809-7.89 6.145zm591.5 236.46c-1.05 8.08.53 12.64 5.09 14.4 6.49 2.45 11.41-2.11 13.86-12.82 1.23-5.62 1.06-5.97-2.63-4.92-2.28.53-6.32-.17-8.95-1.58-2.63-1.22-5.26-2.45-5.61-2.45-.35 0-1.23 3.33-1.76 7.37z" fill="#F3F6F8"/></svg>