<svg width="639" height="816" viewBox="0 0 639 816" fill="none" xmlns="http://www.w3.org/2000/svg">
<path d="M106.359 122.314C103.673 118.664 101.494 114.668 99.88 110.434C98.8161 108.22 97.1198 106.372 95.0056 105.122C92.8915 103.873 90.4543 103.278 88.0024 103.414C85.7839 103.674 83.5355 103.473 81.3985 102.823C79.2615 102.172 77.2822 101.086 75.5849 99.634C73.9652 96.934 76.6647 96.394 83.1434 98.014C91.2417 100.174 93.4013 99.094 93.4013 92.614C93.4013 90.0361 94.4252 87.5638 96.2477 85.741C98.0702 83.9182 100.542 82.8941 103.119 82.8941C105.697 82.8941 108.169 83.9182 109.991 85.741C111.814 87.5638 112.837 90.0361 112.837 92.614C112.837 94.234 115.537 95.854 118.236 95.854C123.635 95.854 124.715 99.094 123.635 110.434C122.555 125.554 113.377 132.034 106.359 122.314Z" fill="#F3F6F8"/>
<path d="M637.696 686.609C617.636 689.221 597.854 688.312 587.942 686.609C583.235 685.779 578.898 683.516 575.525 680.129C571.746 676.889 566.887 674.729 564.727 676.349C559.328 680.129 556.629 699.569 561.488 705.509C565.267 710.909 565.267 710.909 559.328 706.589C549.07 698.489 535.033 702.269 536.113 712.529C537.193 722.789 526.395 724.949 517.756 716.309C513.437 712.529 512.897 714.689 515.057 727.109C519.376 761.129 519.376 762.209 512.897 763.289C509.118 764.369 502.1 760.589 497.78 755.189C493.461 749.789 486.983 746.009 484.283 747.089C478.344 749.789 471.866 741.689 470.246 729.269C470 726.747 468.989 724.361 467.348 722.431C465.708 720.5 463.516 719.118 461.068 718.469C455.843 716.947 451.28 713.714 448.11 709.289C447.053 707.416 445.46 705.901 443.536 704.939C441.613 703.977 439.445 703.611 437.313 703.889C432.355 705.169 427.153 705.169 422.196 703.889C415.177 702.269 412.478 699.029 412.478 690.929C412.478 677.429 407.079 672.569 401.68 682.289C398.44 687.689 397.9 684.449 398.98 670.409C400.06 655.289 398.98 650.969 392.501 647.729C388.722 645.57 385.483 642.33 386.023 639.09C387.103 628.29 384.943 624.51 376.845 625.59C370.366 626.67 367.666 624.51 366.587 618.03C365.507 610.47 363.887 609.93 350.39 611.55C341.212 613.17 334.733 612.09 334.733 609.93C334.733 607.77 327.714 606.69 318.536 607.23C305.039 607.23 301.8 609.39 300.72 615.87C300.358 618.055 299.485 620.124 298.172 621.907C296.858 623.69 295.141 625.137 293.161 626.13C287.223 628.83 282.364 619.65 285.063 611.55C288.842 601.83 282.364 598.05 265.627 600.21C253.209 601.83 249.43 603.99 247.271 611.01C245.111 619.65 229.454 627.21 229.454 619.11C229.454 616.95 226.755 619.11 223.515 623.97C218.656 630.45 218.116 633.69 221.896 638.01C225.675 642.329 224.595 643.949 219.196 647.189C212.717 650.969 212.717 651.509 221.356 659.609C227.295 665.009 229.454 670.409 227.834 676.349C226.677 680.585 225.954 684.927 225.675 689.309C225.675 690.741 225.106 692.115 224.094 693.127C223.081 694.14 221.708 694.709 220.276 694.709C212.717 694.709 212.178 708.209 218.656 712.529C229.454 719.009 203.539 720.089 188.422 713.609C173.845 707.669 170.606 707.669 161.428 711.989C157.441 714.501 153.061 716.327 148.47 717.389C136.053 715.229 132.274 718.469 132.813 729.269C133.331 735.107 132.01 740.96 129.034 746.009C124.715 751.409 125.255 753.029 131.734 756.269C135.513 758.429 140.372 758.969 141.452 757.889C142.531 756.809 144.151 757.349 144.151 760.049C144.151 762.749 137.672 764.369 128.494 764.369C112.298 764.369 113.377 762.749 106.899 800.548C104.739 811.348 102.579 815.128 96.1008 815.128C79.904 815.128 73.9652 807.568 73.9652 789.748C73.9652 780.568 71.8056 771.388 69.6461 770.308C68.2159 768.503 67.1872 766.413 66.6286 764.178C66.07 761.943 65.9944 759.615 66.4067 757.349C68.0264 730.349 66.4067 723.869 55.069 717.389C45.8908 711.989 43.7313 707.669 41.5717 692.009C40.4919 681.749 37.7924 672.569 35.093 672.029C29.6941 669.869 19.4361 650.429 19.4361 640.17C19.0881 637.694 18.2382 635.315 16.9385 633.179C15.6388 631.044 13.9166 629.196 11.8776 627.75C5.93881 622.89 4.31914 615.33 2.15957 574.83L0 527.31L9.17816 537.03C17.8164 546.21 19.976 546.75 26.9946 542.43C29.1933 540.381 32.0873 539.241 35.093 539.241C38.0987 539.241 40.9926 540.381 43.1914 542.43C49.6701 546.75 50.7498 546.75 50.7498 538.11C50.5641 535.979 50.8025 533.831 51.4512 531.792C52.0998 529.753 53.1459 527.863 54.5291 526.23C56.6887 524.61 58.3083 525.151 58.3083 526.771C58.3083 530.01 76.6647 539.73 82.6035 539.73C88.5423 539.73 85.3029 528.39 78.8242 524.61C72.3455 520.831 72.8854 520.291 78.2843 518.671C85.8428 515.431 105.279 522.45 105.279 528.39C105.279 534.33 121.476 528.39 125.795 521.91C126.714 520.399 127.974 519.123 129.473 518.186C130.973 517.248 132.672 516.674 134.433 516.51C137.672 516.51 139.832 514.891 139.832 512.731C139.832 510.571 143.611 508.411 147.93 507.331C157.648 504.631 158.728 484.651 150.09 468.451C146.823 462.332 145.504 455.361 146.311 448.471C148.47 440.911 146.311 438.751 137.133 436.591C127.954 434.431 125.795 432.811 126.335 422.551C127.25 415.26 130.465 408.451 135.513 403.112C145.771 393.932 145.771 392.312 137.672 381.512C132.274 372.872 132.274 372.332 141.452 368.552C144.443 367.295 147.113 365.38 149.263 362.949C151.412 360.519 152.987 357.635 153.869 354.512C156.029 345.332 154.409 341.552 141.992 330.752L127.415 317.252L138.212 305.912C151.17 291.332 154.409 291.332 156.569 302.132C158.188 307.532 161.968 309.692 170.606 309.692C178.704 309.692 181.944 308.612 180.324 305.372C176.545 299.972 186.263 270.813 195.441 260.553C199.637 255.899 204.795 252.213 210.558 249.753C218.116 247.053 220.816 230.853 214.337 226.533C212.178 225.453 211.638 221.133 212.717 217.353C213.492 215.546 213.7 213.546 213.315 211.618C212.929 209.689 211.968 207.924 210.558 206.553C204.079 202.773 205.159 193.053 212.178 193.053C215.417 193.053 220.276 188.733 222.975 183.333C225.675 177.933 229.454 173.613 232.154 173.613C234.853 173.613 237.552 171.993 237.552 169.833C237.552 167.673 241.332 164.433 246.191 161.733C253.209 157.953 253.749 157.953 251.59 163.353C248.89 171.993 255.369 171.453 261.848 163.353C268.772 156.623 276.809 151.142 285.603 147.154C305.579 137.974 315.297 139.594 323.395 154.174C329.874 167.133 334.733 162.813 332.034 146.614C330.414 135.814 330.954 130.414 334.193 130.414C337.432 130.414 337.972 128.794 336.353 126.634C334.733 124.474 336.353 122.854 341.212 124.474C362.55 130.256 384.455 133.696 406.539 134.734C422.735 134.734 437.313 126.094 433.533 118.534C429.754 110.974 435.693 100.174 444.331 98.554C449.19 98.014 452.429 95.314 451.89 92.614C451.35 89.914 454.589 87.7541 458.908 87.7541C463.227 87.7541 466.467 85.0541 466.467 81.2741C466.467 74.2542 482.663 64.5342 492.382 64.5342C495.081 64.5342 500.48 59.1343 504.259 53.7343C513.977 39.1545 521.536 33.7545 532.873 33.2145C546.371 33.2145 550.69 29.4345 553.929 15.3946C556.089 4.59474 558.788 2.97475 570.126 0.81477C574.405 -0.21865 578.862 -0.269687 583.163 0.665523C587.464 1.60073 591.497 3.49791 594.961 6.21472C600.36 10.5347 606.299 12.6947 607.378 11.6147C608.458 10.5347 611.698 12.6947 614.397 15.9346C617.097 19.1746 618.176 22.9546 616.017 24.5746C610.618 28.3545 606.299 45.0944 610.618 45.0944C612.777 45.0944 616.017 48.8744 618.716 53.7343C624.115 64.5343 623.575 145.534 617.636 152.554C612.112 157.119 605.666 160.435 598.74 162.273C586.863 166.053 582.544 165.513 574.445 160.653C560.408 150.934 547.451 112.054 547.451 76.9541C547.451 66.1542 540.972 69.3942 535.033 83.4341C530.737 91.3949 528.509 100.308 528.554 109.354C528.53 112.065 527.62 114.693 525.963 116.838C524.306 118.983 521.993 120.527 519.376 121.234C504.799 126.094 493.461 139.054 493.461 152.014C493.658 157.968 491.956 163.83 488.602 168.753C485.363 171.993 485.363 173.613 488.602 173.613C491.842 173.613 494.001 177.393 494.001 181.173C494.212 183.135 495.049 184.976 496.388 186.425C497.727 187.874 499.497 188.852 501.435 189.216C503.374 189.579 505.378 189.309 507.151 188.444C508.924 187.579 510.371 186.165 511.278 184.413C513.478 179.872 514.587 174.879 514.517 169.833C514.517 163.893 517.217 159.573 521.536 159.033C526.935 157.953 528.014 160.653 527.474 170.913C526.935 197.373 544.751 210.333 552.31 188.733C556.629 176.853 556.629 176.853 578.224 179.553C591.182 181.173 601.98 184.953 605.219 188.733C608.458 192.513 607.918 195.753 605.759 196.293C599.82 198.993 605.759 204.933 614.397 204.933C619.181 204.62 623.715 202.683 627.249 199.443C630.783 196.202 633.106 191.853 633.833 187.113C634.537 184.842 635.877 182.821 637.696 181.289C639.514 179.758 635.338 686.916 637.696 686.609Z" fill="#F3F6F8"/>
</svg>
