<svg width="538" height="1258" viewBox="0 0 538 1258" fill="none" xmlns="http://www.w3.org/2000/svg">
<path d="M396.286 1059.28C390.887 1052.8 386.568 1044.7 388.188 1041.46C389.807 1038.22 388.188 1036.06 386.568 1036.06C382.789 1036.06 370.911 1014.46 370.911 1006.9C370.911 1004.2 365.512 998.262 357.954 993.942C350.023 988.735 343.674 981.45 339.597 972.882C334.523 962.373 328.372 952.42 321.241 943.182C314.163 933.717 308.016 923.59 302.885 912.943C299.285 904.303 294.786 899.983 289.387 899.983C281.289 899.983 265.632 887.563 265.632 881.083C264.739 877.878 262.847 875.041 260.233 872.983C256.908 870.306 254.774 866.425 254.294 862.183C253.541 857.134 251.283 852.429 247.816 848.683C242.417 843.283 242.417 840.583 245.656 837.883C252.675 834.103 247.276 814.124 238.638 811.964C234.318 810.884 232.159 807.644 233.239 804.404C236.478 796.304 242.417 797.924 246.736 809.264C248.804 814.562 252.878 818.831 258.074 821.144C262.393 822.224 265.632 826.003 265.632 828.703C265.879 830.593 266.676 832.368 267.924 833.808C269.172 835.249 270.816 836.29 272.651 836.803C284.528 841.123 289.387 846.523 285.608 851.383C281.289 856.783 291.007 869.203 305.584 875.683C311.523 878.383 316.382 882.163 316.382 884.863C316.514 885.913 317.027 886.877 317.823 887.574C318.619 888.271 319.643 888.651 320.701 888.643C323.401 888.643 335.818 897.823 349.315 909.703C360.83 920.13 373.511 929.191 387.108 936.703L400.605 942.103L381.709 942.643C359.033 943.183 356.874 947.502 365.512 972.882C374.15 998.262 386.028 1017.16 394.126 1017.16C399.191 1017.73 404.025 1019.59 408.164 1022.56C410.08 1024.21 412.316 1025.44 414.731 1026.19C417.147 1026.93 419.69 1027.17 422.201 1026.88C430.839 1024.18 440.557 1044.16 432.999 1048.48C431.734 1049.32 430.269 1049.82 428.752 1049.91C427.235 1050.01 425.72 1049.7 424.36 1049.02C422.741 1047.94 423.281 1045.24 426.52 1043.62C430.299 1041.46 430.299 1040.38 426.52 1040.38C418.422 1040.38 407.084 1054.42 410.323 1060.36C420.041 1075.48 410.323 1074.94 396.826 1059.28H396.286ZM379.009 1046.32C379.009 1042 379.549 1039.84 381.169 1040.92C381.832 1042.07 382.182 1043.37 382.182 1044.7C382.182 1046.03 381.832 1047.33 381.169 1048.48C380.089 1051.72 379.009 1051.18 379.009 1046.32ZM487.528 1029.58C487.528 1018.78 489.687 1013.38 494.006 1011.22C499.405 1009.06 499.405 1011.22 497.786 1023.64C493.467 1045.24 487.528 1049.02 487.528 1029.58ZM502.105 1002.58C496.706 997.182 498.865 963.162 505.344 961.002C506.955 960.203 508.313 958.972 509.266 957.447C510.219 955.921 510.731 954.161 510.743 952.362C510.743 949.122 512.903 946.962 515.062 946.962C520.461 946.962 519.921 951.282 512.903 967.482C510.072 973.546 508.952 980.268 509.663 986.922C511.823 993.942 505.884 1006.9 502.105 1003.12V1002.58ZM523.161 924.823C523.161 917.803 524.24 910.783 526.4 909.703C531.259 907.003 531.259 918.343 526.4 929.143C523.7 936.163 523.161 935.083 523.161 924.823ZM535.038 865.423C535.038 860.023 536.118 857.323 537.198 860.023C538.267 863.175 538.267 866.592 537.198 869.743C535.578 872.983 535.038 870.823 535.038 865.423ZM147.396 845.443C145.776 843.283 146.856 841.663 149.015 841.663C149.978 841.778 150.874 842.213 151.56 842.898C152.245 843.584 152.68 844.48 152.795 845.443C152.795 847.603 152.255 849.763 151.175 849.763C150.095 849.763 148.475 848.143 147.396 845.983V845.443ZM520.461 794.684C517.222 789.284 519.921 787.124 525.86 790.904C529.639 793.064 529.639 795.224 526.94 796.304C525.891 796.861 524.689 797.058 523.517 796.862C522.346 796.667 521.272 796.091 520.461 795.224V794.684ZM515.062 767.684C515.165 766.968 515.472 766.298 515.945 765.751C516.418 765.204 517.037 764.805 517.73 764.6C518.423 764.394 519.16 764.392 519.855 764.594C520.549 764.795 521.171 765.191 521.647 765.735C522.123 766.279 522.433 766.948 522.54 767.663C522.647 768.378 522.547 769.109 522.252 769.768C521.957 770.428 521.479 770.989 520.874 771.386C520.27 771.782 519.564 771.996 518.841 772.004C517.839 772.004 516.878 771.606 516.169 770.897C515.46 770.188 515.062 769.226 515.062 768.224V767.684ZM510.743 746.084C510.488 743.932 510.488 741.757 510.743 739.604C510.613 735.785 509.497 732.064 507.504 728.804C506.352 727.211 505.777 725.273 505.876 723.309C505.974 721.346 506.738 719.474 508.044 718.004C513.442 712.604 520.461 712.064 516.682 717.464C516.092 718.908 515.931 720.491 516.218 722.023C516.505 723.556 517.229 724.973 518.302 726.104C521.001 729.344 520.461 733.664 516.682 740.684C513.443 746.084 511.283 748.784 510.743 746.624V746.084ZM258.074 591.105C258.074 590.565 259.693 588.405 261.853 587.325C264.012 586.245 265.632 586.785 265.632 588.945C265.632 589.948 265.234 590.909 264.525 591.618C263.817 592.327 262.855 592.725 261.853 592.725C259.693 592.725 258.074 592.725 258.074 591.105ZM130.119 194.749C130.119 193.669 132.819 192.049 136.058 190.969C139.297 189.889 141.457 190.969 141.457 192.589C141.457 194.209 139.297 196.369 136.058 196.369C132.819 196.369 130.659 195.829 130.659 194.749H130.119ZM150.635 70.0096C143.616 55.9697 144.696 49.4898 153.334 44.6298C161.973 39.7699 162.513 40.8499 161.433 60.8297C160.353 78.1095 156.034 82.4295 150.635 70.0096Z" fill="#F3F6F8"/>
<path d="M208.943 1252.6C215.962 1247.2 215.962 1246.66 209.483 1227.22C206.248 1217.3 201.709 1207.86 195.986 1199.14C190.587 1191.58 190.047 1188.88 194.366 1180.24C197.066 1174.84 201.385 1169.98 203.545 1169.44L214.342 1168.9C223.521 1168.36 227.84 1154.32 222.441 1144.06C221.189 1142.08 220.617 1139.74 220.812 1137.4C221.007 1135.06 221.957 1132.85 223.52 1131.1C228.351 1125.73 227.846 1124.63 215.639 1098.09L215.422 1097.62C211.643 1089.52 211.103 1085.74 214.882 1081.42C218.662 1077.1 218.122 1074.94 213.263 1070.62C209.796 1066.77 207.874 1061.77 207.864 1056.58C207.864 1051.72 206.244 1047.4 204.624 1047.4C201.385 1047.4 190.047 1063.6 191.127 1067.38C191.127 1069 187.348 1072.24 181.949 1074.94C176.438 1078.05 172.224 1083.03 170.071 1088.98C168.991 1094.38 166.292 1098.16 164.672 1098.16C161.353 1099.14 158.365 1101 156.034 1103.56C147.396 1111.66 135.518 1106.8 127.42 1092.76C122.561 1083.58 117.702 1079.8 110.683 1079.26L85.848 1077.1C77.7496 1076.02 70.1911 1077.1 69.6512 1078.72C66.4119 1083.58 52.3747 1079.8 41.037 1071.7C33.3276 1065.21 24.5622 1060.1 15.1223 1056.58C7.5638 1054.42 7.56361 1053.88 16.2019 1051.18L25.3801 1049.02L15.1223 1038.22C10.9091 1034.09 7.59979 1029.12 5.40403 1023.64C5.40963 1023.1 5.2973 1022.56 5.07456 1022.06C4.85182 1021.56 4.52393 1021.12 4.11362 1020.76C3.70331 1020.4 3.22028 1020.13 2.69749 1019.98C2.17469 1019.82 0.545348 291.486 0.545348 291.486C2.59538 285.016 21.7616 279.025 26.4598 274.128C34.5582 264.408 38.8774 262.248 53.4544 262.248C64.2523 262.248 70.731 264.408 72.3507 268.188C77.2097 280.608 107.444 271.428 105.824 257.388C105.227 251.94 106.301 246.439 108.905 241.616C111.509 236.793 115.519 232.877 120.401 230.388C126.737 227.188 131.716 221.824 134.438 215.268C137.678 207.168 140.917 204.469 145.236 205.009C146.842 205.69 148.61 205.9 150.331 205.613C152.052 205.326 153.656 204.555 154.954 203.389C156.195 202.132 157.771 201.259 159.495 200.876C161.219 200.493 163.016 200.615 164.672 201.229C166.727 201.603 168.844 201.453 170.826 200.792C172.808 200.132 174.591 198.982 176.01 197.449C182.489 189.889 173.85 180.709 159.813 180.709C144.696 180.709 143.076 171.529 156.034 157.489C161.973 151.009 166.292 145.609 165.212 145.609C164.132 145.609 166.832 140.209 170.611 133.189C181.409 114.289 196.526 102.409 232.159 84.5895C238.658 81.2514 244.807 77.2716 250.515 72.7096C254.294 69.4696 258.614 67.8496 260.773 69.4696C262.933 71.0896 265.632 68.9296 266.712 65.6897C266.951 64.81 267.374 63.9909 267.952 63.2858C268.53 62.5807 269.25 62.0054 270.065 61.5977C270.88 61.19 271.773 60.9589 272.683 60.9196C273.594 60.8803 274.503 61.0337 275.35 61.3697C280.209 63.5297 280.749 62.4497 279.13 57.5897C276.97 52.1898 279.129 51.6498 300.185 53.2697C318.542 54.8897 323.401 54.3497 323.401 50.0298C323.401 46.7898 319.621 44.6298 313.682 44.6298C302.885 44.6298 301.805 42.4698 310.443 33.8299C311.892 32.4646 312.993 30.7708 313.65 28.8912C314.308 27.0116 314.504 25.0013 314.222 23.03C313.143 19.79 315.842 16.55 320.701 14.9301C327.568 12.5321 334.099 9.2656 340.137 5.21014C351.475 -2.88979 350.935 -2.88979 352.555 14.9301C352.986 17.906 354.529 20.6076 356.874 22.49C359.033 24.11 358.493 26.81 354.714 28.9699C350.935 31.1299 350.395 33.8299 351.475 34.3699C353.095 37.0699 367.672 39.7699 377.39 40.8498C380.089 40.8498 381.169 43.0098 379.549 45.7098C377.93 48.4098 379.009 49.4898 383.328 47.3298C387.648 45.1698 389.807 47.3298 389.807 50.5698C389.807 53.8097 388.188 56.5097 386.028 56.5097C383.868 56.5097 382.249 57.5897 382.789 59.2097C383.329 60.8297 378.47 67.8496 371.991 74.3296C362.813 84.0495 359.033 85.6695 353.634 82.4295C348.235 79.1895 346.076 79.7295 341.217 85.6695C338.001 90.4894 336.137 96.0837 335.818 101.869C335.818 108.889 333.119 111.049 325.56 111.049C323.392 111.162 321.223 110.838 319.182 110.096C317.142 109.354 315.272 108.209 313.682 106.729C310.443 101.329 305.584 102.409 302.885 109.429C300.185 116.449 311.523 126.709 320.701 124.009C325.56 122.389 329.339 126.709 335.278 138.049C343.916 155.329 341.757 165.049 327.72 173.149C322.321 175.309 320.701 179.089 322.321 183.409C324.48 188.809 325.56 188.809 329.339 183.409C331.007 181.441 333.072 179.846 335.397 178.73C337.723 177.613 340.258 177 342.837 176.929C347.156 176.929 350.935 174.769 350.935 172.609C350.935 167.749 367.132 172.069 370.911 178.009C372.531 180.169 374.69 180.169 376.31 177.469C379.549 172.069 406.544 172.609 410.323 178.549C414.102 184.489 398.985 200.149 391.427 200.149C384.948 200.149 384.408 206.629 390.887 208.788C393.587 209.868 396.286 220.668 396.286 238.488C396.652 252.319 398.462 266.073 401.685 279.528C403.849 286.267 405.652 293.116 407.084 300.048L412.483 321.648C416.262 335.147 416.262 336.227 407.084 336.227C395.746 336.227 386.568 352.427 385.488 374.567C384.948 388.067 383.868 389.687 379.009 385.367C374.15 381.047 373.61 382.667 375.23 397.247C376.85 409.127 376.31 413.447 372.531 413.447C364.432 413.447 362.273 430.187 369.831 440.447L386.028 467.446C395.746 485.266 409.244 493.906 409.244 482.026C409.24 481.199 409.409 480.379 409.741 479.621C410.073 478.863 410.559 478.182 411.169 477.623C411.779 477.064 412.499 476.638 413.283 476.374C414.067 476.109 414.898 476.011 415.722 476.086C420.041 476.086 421.121 478.246 420.041 483.106C418.962 487.966 420.041 491.746 428.14 493.906C432.525 495.155 437.08 495.702 441.637 495.526C445.309 495.325 448.983 495.876 452.435 497.146C461.073 499.846 462.693 510.646 454.054 510.646C453.198 510.777 452.377 511.077 451.639 511.531C450.901 511.984 450.262 512.581 449.759 513.286C449.255 513.99 448.898 514.789 448.709 515.634C448.519 516.479 448.501 517.354 448.655 518.206C448.655 528.466 463.232 545.746 471.871 545.746C473.819 545.566 475.777 545.979 477.487 546.93C479.197 547.882 480.58 549.327 481.455 551.078C482.33 552.828 482.656 554.802 482.391 556.741C482.126 558.68 481.282 560.494 479.969 561.946C476.697 567.682 475.195 574.257 475.65 580.845C475.065 584.941 475.611 589.118 477.228 592.925C478.846 596.732 481.474 600.025 484.828 602.445C493.467 608.925 494.006 610.005 489.147 624.045C484.828 635.925 484.828 639.165 488.608 639.165C495.086 639.165 510.203 674.805 510.203 689.925C510.203 705.044 500.485 705.044 486.448 689.925C478.354 682.273 469.276 675.736 459.453 670.485C427.06 653.205 366.592 598.125 366.592 584.625C366.592 574.366 358.493 557.626 353.634 557.626C351.475 557.626 351.475 555.466 354.174 552.766C361.193 545.746 360.113 505.246 353.095 498.766C349.979 495.767 348.06 491.736 347.696 487.426C347.74 485.587 347.376 483.761 346.629 482.08C345.882 480.399 344.771 478.905 343.377 477.706C340.137 476.086 340.137 473.386 343.377 470.146C346.616 466.906 345.536 459.887 340.677 446.927C335.278 431.807 334.738 427.487 339.057 421.007C344.456 411.827 342.297 407.507 322.861 389.687C319.7 387.194 317.07 384.094 315.123 380.571C313.176 377.047 311.952 373.17 311.523 369.167C311.523 357.287 306.124 356.207 298.026 365.927C289.927 375.647 291.547 381.587 300.725 391.307C305.434 397.129 308.091 404.341 308.284 411.827C308.288 420.154 309.01 428.464 310.443 436.667C312.063 446.387 311.523 448.547 306.124 447.467C301.277 445.771 297.109 442.55 294.246 438.287C287.228 428.567 280.749 427.487 280.749 435.587C280.614 437.067 279.929 438.442 278.83 439.442C277.73 440.442 276.296 440.993 274.81 440.987C272.777 441.305 270.897 442.261 269.441 443.717C267.986 445.172 267.03 447.053 266.712 449.087C265.632 453.407 262.933 456.646 261.313 456.646C255.914 456.646 252.675 480.406 257.534 485.806C259.693 489.046 262.933 502.006 264.012 513.886C265.057 525.557 267.785 537.016 272.111 547.906C277.51 558.706 277.51 558.706 285.068 551.686C289.387 547.906 292.627 546.826 292.627 549.526C290.703 554.692 287.328 559.192 282.909 562.486C278.236 565.991 274.826 570.917 273.191 576.526C273.191 579.765 270.491 580.845 265.632 579.766C260.773 578.686 256.994 578.685 255.914 580.845C254.834 583.005 249.975 583.545 245.656 582.465C240.257 580.845 238.098 582.465 238.098 586.785C238.098 590.025 236.478 592.725 234.858 592.185C223.52 590.565 218.122 594.345 215.962 604.605C213.802 616.485 208.403 622.425 193.826 629.985C191.749 630.989 189.963 632.509 188.639 634.4C187.316 636.29 186.5 638.489 186.268 640.785C186.268 645.645 185.188 646.185 181.949 644.025C178.709 641.865 172.771 644.025 163.053 653.205C141.457 673.185 135.518 683.985 138.217 699.104C139.837 706.124 139.297 713.144 138.217 715.304C137.138 717.464 134.438 726.104 134.438 736.904C134.438 747.704 131.739 758.504 129.039 761.744C126.34 764.984 125.26 777.944 125.8 791.984C126.34 806.024 124.18 821.143 121.481 825.463C118.829 831.042 117.358 837.109 117.162 843.283C117.348 845.415 117.109 847.562 116.46 849.601C115.812 851.64 114.766 853.531 113.383 855.163C112.043 856.495 111.011 858.103 110.358 859.875C109.705 861.647 109.448 863.541 109.603 865.423C109.603 870.823 112.303 872.983 120.941 872.983C125.929 873.531 130.94 872.182 134.978 869.203C136.058 867.043 141.457 869.743 146.316 875.683C153.874 884.323 156.034 885.403 156.034 879.463C156.034 871.363 164.132 870.283 164.132 878.923C164.132 880.427 164.73 881.869 165.793 882.932C166.856 883.996 168.298 884.593 169.801 884.593C171.305 884.593 172.747 883.996 173.81 882.932C174.873 881.869 175.47 880.427 175.47 878.923C175.385 878.122 175.48 877.312 175.749 876.553C176.017 875.794 176.452 875.104 177.021 874.534C177.591 873.965 178.28 873.53 179.039 873.262C179.798 872.993 180.608 872.898 181.409 872.983C187.888 872.983 189.507 862.723 183.029 858.943C175.47 854.623 188.427 844.903 199.225 847.063C222.441 851.923 234.318 855.703 234.318 857.863C237.821 864.337 242.383 870.178 247.816 875.143C256.994 883.783 261.313 891.343 259.693 895.123C256.454 902.683 265.092 929.143 272.651 938.323C279.315 946.902 285.103 956.128 289.927 965.862C300.725 986.382 300.725 986.922 298.566 1057.12C296.946 1131.64 295.866 1144.6 291.007 1152.16C289.089 1156.59 288.709 1161.53 289.927 1166.2C293.167 1178.08 279.129 1209.4 265.632 1221.82C256.994 1229.38 252.675 1230.46 238.638 1228.3L222.441 1226.14L219.741 1242.34C218.122 1254.76 215.962 1258 209.483 1258C201.925 1258 201.925 1258 208.404 1252.6H208.943Z" fill="#F3F6F8"/>
</svg>
